# Blender 5.0.1
# www.blender.org
mtllib Paredes.mtl
o Laberinto_Vacio
v -18.650000 0.000000 -17.250000
v -19.150000 0.000000 -17.750000
v -0.950000 0.000000 -17.250000
v -0.450000 0.000000 -17.250000
v 0.450000 0.000000 -17.250000
v 0.950000 0.000000 -17.250000
v 18.650000 0.000000 -17.250000
v 19.150000 0.000000 -17.750000
v -0.950000 0.000000 -14.950000
v -0.450000 0.000000 -14.950000
v -15.850000 0.000000 -14.450000
v -15.850000 0.000000 -14.950000
v -16.350000 0.000000 -14.950000
v -15.850000 0.000000 -13.550000
v -12.150000 0.000000 -14.450000
v -13.050000 0.000000 -13.550000
v -11.650000 0.000000 -14.950000
v -12.150000 0.000000 -13.550000
v -8.850000 0.000000 -14.450000
v -9.350000 0.000000 -14.950000
v -8.850000 0.000000 -13.550000
v -7.450000 0.000000 -13.550000
v -3.750000 0.000000 -14.450000
v -3.250000 0.000000 -14.450000
v -3.250000 0.000000 -14.950000
v -3.750000 0.000000 -13.550000
v -0.450000 0.000000 -13.550000
v 0.450000 0.000000 -13.550000
v 3.250000 0.000000 -14.450000
v 3.750000 0.000000 -14.450000
v 3.250000 0.000000 -14.950000
v 3.750000 0.000000 -13.550000
v 5.150000 0.000000 -14.450000
v 5.150000 0.000000 -14.950000
v 8.850000 0.000000 -14.450000
v 9.350000 0.000000 -14.950000
v 8.850000 0.000000 -13.550000
v 12.150000 0.000000 -14.450000
v 11.650000 0.000000 -14.950000
v 11.650000 0.000000 -13.550000
v 12.150000 0.000000 -13.550000
v 13.050000 0.000000 -13.550000
v 15.850000 0.000000 -14.450000
v 16.350000 0.000000 -14.950000
v 15.850000 0.000000 -13.550000
v -16.350000 0.000000 -13.050000
v -13.050000 0.000000 -13.050000
v -11.650000 0.000000 -13.050000
v -9.350000 0.000000 -13.050000
v -7.450000 0.000000 -13.050000
v -3.250000 0.000000 -13.050000
v -0.950000 0.000000 -13.050000
v -0.450000 0.000000 -13.050000
v 0.950000 0.000000 -13.050000
v 3.250000 0.000000 -13.050000
v 9.350000 0.000000 -13.050000
v 11.650000 0.000000 -13.050000
v 13.050000 0.000000 -13.050000
v 16.350000 0.000000 -13.050000
v -16.350000 0.000000 -10.250000
v -16.350000 0.000000 -10.750000
v -11.650000 0.000000 -10.250000
v -11.650000 0.000000 -10.750000
v -8.850000 0.000000 -10.250000
v -9.350000 0.000000 -10.750000
v -7.950000 0.000000 -10.250000
v -7.450000 0.000000 -10.250000
v -7.450000 0.000000 -10.750000
v -5.150000 0.000000 -10.250000
v -5.150000 0.000000 -10.750000
v -0.950000 0.000000 -10.250000
v -0.450000 0.000000 -10.250000
v 0.450000 0.000000 -10.250000
v 0.950000 0.000000 -10.250000
v 5.150000 0.000000 -10.250000
v 5.150000 0.000000 -10.750000
v 7.950000 0.000000 -10.250000
v 7.450000 0.000000 -10.750000
v 8.850000 0.000000 -10.250000
v 9.350000 0.000000 -10.250000
v 9.350000 0.000000 -10.750000
v 11.650000 0.000000 -10.250000
v 11.650000 0.000000 -10.750000
v 19.150000 2.625000 17.750000
v 16.350000 0.000000 -10.250000
v 16.350000 0.000000 -10.750000
v -18.650000 0.000000 -7.950000
v -7.450000 0.000000 -7.950000
v 0.450000 0.000000 -8.850000
v -0.450000 0.000000 -7.950000
v 0.950000 0.000000 -8.850000
v 0.450000 0.000000 -7.950000
v 7.450000 0.000000 -7.950000
v 18.650000 0.000000 -7.950000
v -18.650000 0.000000 -7.450000
v -12.150000 0.000000 -7.450000
v -11.650000 0.000000 -7.950000
v -12.150000 0.000000 -6.550000
v -11.650000 0.000000 -6.550000
v -9.350000 0.000000 -7.450000
v -8.850000 0.000000 -7.450000
v -7.450000 0.000000 -7.450000
v -19.150000 2.625000 17.750000
v 18.650000 2.625000 17.250000
v -18.650000 2.625000 17.250000
v -3.250000 0.000000 -7.450000
v -3.250000 0.000000 -7.950000
v -0.950000 0.000000 -7.450000
v 16.350000 2.625000 14.450000
v 16.350000 2.625000 14.950000
v 0.950000 0.000000 -7.450000
v 3.250000 0.000000 -7.450000
v 3.250000 0.000000 -7.950000
v 7.450000 0.000000 -7.450000
v 7.950000 0.000000 -7.450000
v 12.150000 0.000000 -7.450000
v 11.650000 0.000000 -7.950000
v 3.250000 2.625000 14.450000
v 3.250000 2.625000 14.950000
v 0.950000 2.625000 14.950000
v 0.450000 2.625000 14.950000
v -0.950000 2.625000 14.950000
v -3.250000 2.625000 14.450000
v -3.250000 2.625000 14.950000
v 18.650000 0.000000 -7.450000
v -16.350000 2.625000 14.450000
v -16.350000 2.625000 14.950000
v 9.350000 2.625000 14.450000
v 8.850000 2.625000 14.450000
v 7.950000 2.625000 14.450000
v 7.450000 2.625000 14.450000
v 0.450000 2.625000 14.450000
v -0.450000 2.625000 14.450000
v -7.450000 2.625000 14.450000
v -7.950000 2.625000 14.450000
v -8.850000 2.625000 14.450000
v -9.350000 2.625000 14.450000
v -8.850000 0.000000 -5.150000
v 18.650000 2.625000 12.150000
v -7.950000 0.000000 -5.150000
v 15.850000 2.625000 11.650000
v 15.850000 2.625000 12.150000
v 13.550000 2.625000 12.150000
v 7.950000 0.000000 -5.150000
v 12.150000 2.625000 12.150000
v 11.650000 2.625000 12.150000
v 8.850000 0.000000 -5.150000
v 9.350000 2.625000 11.650000
v 7.950000 2.625000 13.050000
v 7.450000 2.625000 13.050000
v 8.850000 2.625000 11.650000
v 8.850000 2.625000 12.150000
v 7.450000 2.625000 11.650000
v 7.950000 2.625000 12.150000
v 5.150000 2.625000 11.650000
v 5.150000 2.625000 12.150000
v 0.950000 2.625000 13.050000
v 0.450000 2.625000 13.050000
v 0.950000 2.625000 12.150000
v 0.450000 2.625000 12.150000
v -0.450000 2.625000 12.150000
v -0.950000 2.625000 12.150000
v -5.150000 2.625000 11.650000
v -5.150000 2.625000 12.150000
v -7.450000 2.625000 11.650000
v -7.950000 2.625000 12.150000
v -9.350000 2.625000 11.650000
v -8.850000 2.625000 12.150000
v -11.650000 2.625000 12.150000
v -12.150000 2.625000 12.150000
v -13.550000 2.625000 12.150000
v -15.850000 2.625000 11.650000
v -15.850000 2.625000 12.150000
v -18.650000 2.625000 12.150000
v 18.650000 2.625000 11.650000
v 13.050000 2.625000 11.650000
v 12.150000 2.625000 11.650000
v 3.750000 2.625000 11.650000
v 3.250000 2.625000 11.650000
v 3.250000 2.625000 10.250000
v 3.750000 2.625000 10.250000
v -3.250000 2.625000 11.650000
v -3.750000 2.625000 11.650000
v -9.350000 0.000000 -4.650000
v -3.750000 2.625000 10.250000
v -3.250000 2.625000 10.250000
v -12.150000 2.625000 11.650000
v -7.450000 0.000000 -4.650000
v -13.050000 2.625000 11.650000
v -4.650000 0.000000 -4.650000
v -5.150000 0.000000 -5.150000
v -18.650000 2.625000 11.650000
v -1.850000 0.000000 -4.650000
v -1.850000 0.000000 -5.150000
v 1.850000 0.000000 -4.650000
v 1.850000 0.000000 -5.150000
v 16.350000 2.625000 8.850000
v 16.350000 2.625000 9.350000
v 4.650000 0.000000 -4.650000
v 5.150000 0.000000 -5.150000
v 7.450000 0.000000 -4.650000
v 13.550000 2.625000 9.350000
v 12.150000 2.625000 10.250000
v 11.650000 2.625000 10.250000
v 9.350000 0.000000 -4.650000
v 13.050000 2.625000 9.350000
v 11.650000 2.625000 8.850000
v 12.150000 2.625000 9.350000
v 9.350000 2.625000 8.850000
v 9.350000 2.625000 9.350000
v 6.050000 2.625000 8.850000
v 6.050000 2.625000 9.350000
v 0.950000 2.625000 9.350000
v -0.950000 2.625000 9.350000
v -6.050000 2.625000 8.850000
v -6.050000 2.625000 9.350000
v -9.350000 2.625000 8.850000
v -9.350000 2.625000 9.350000
v -11.650000 2.625000 10.250000
v -12.150000 2.625000 10.250000
v -11.650000 2.625000 8.850000
v -12.150000 2.625000 9.350000
v -13.050000 2.625000 9.350000
v -13.550000 2.625000 9.350000
v -16.350000 2.625000 8.850000
v -16.350000 2.625000 9.350000
v 5.150000 2.625000 7.450000
v 5.150000 2.625000 7.950000
v 0.450000 2.625000 8.850000
v 0.950000 2.625000 7.950000
v -0.450000 2.625000 8.850000
v -0.950000 2.625000 8.850000
v 0.450000 2.625000 7.450000
v 0.450000 2.625000 7.950000
v -0.450000 2.625000 7.950000
v -0.950000 2.625000 7.950000
v -4.650000 0.000000 -2.350000
v -5.150000 2.625000 7.450000
v 4.650000 0.000000 -2.350000
v -5.150000 2.625000 7.950000
v 18.650000 2.625000 6.550000
v 11.650000 2.625000 6.550000
v 9.350000 2.625000 6.550000
v 7.450000 2.625000 6.550000
v -7.450000 2.625000 6.550000
v -9.350000 2.625000 6.550000
v -11.650000 2.625000 6.550000
v -17.750000 2.625000 6.550000
v -18.650000 2.625000 6.550000
v 18.650000 2.625000 6.050000
v -18.650000 0.000000 -0.950000
v 12.150000 2.625000 6.050000
v 8.850000 2.625000 6.050000
v 9.350000 2.625000 4.650000
v 9.350000 2.625000 5.150000
v 7.950000 2.625000 6.050000
v 7.450000 2.625000 6.050000
v 8.850000 2.625000 5.150000
v 7.450000 2.625000 4.650000
v 7.950000 2.625000 5.150000
v 5.150000 2.625000 4.650000
v 5.150000 2.625000 5.150000
v -12.150000 0.000000 -0.950000
v -8.850000 0.000000 -1.850000
v -8.850000 0.000000 -2.350000
v -9.350000 0.000000 -2.350000
v -7.950000 0.000000 -1.850000
v -7.450000 0.000000 -2.350000
v -5.150000 0.000000 -1.850000
v -5.150000 2.625000 4.650000
v -5.150000 2.625000 5.150000
v -7.450000 2.625000 6.050000
v -7.950000 2.625000 6.050000
v -7.450000 2.625000 4.650000
v -8.850000 2.625000 6.050000
v -7.950000 2.625000 4.650000
v -7.950000 2.625000 5.150000
v -9.350000 2.625000 4.650000
v -8.850000 2.625000 5.150000
v -12.150000 2.625000 6.050000
v 5.150000 0.000000 -1.850000
v 7.950000 0.000000 -1.850000
v 7.450000 0.000000 -2.350000
v 8.850000 0.000000 -1.850000
v 9.350000 0.000000 -1.850000
v 9.350000 0.000000 -2.350000
v -17.750000 2.625000 6.050000
v -18.650000 2.625000 6.050000
v 12.150000 0.000000 -0.950000
v 18.650000 0.000000 -1.850000
v 19.150000 0.000000 -1.850000
v 18.650000 0.000000 -0.950000
v -19.150000 0.000000 -0.450000
v 19.150000 2.625000 3.250000
v 18.650000 2.625000 3.250000
v 19.150000 2.625000 1.850000
v 18.650000 2.625000 2.350000
v 16.350000 2.625000 1.850000
v -12.150000 0.000000 -0.450000
v 16.350000 2.625000 2.350000
v -11.650000 0.000000 -0.450000
v -9.350000 0.000000 -0.450000
v -8.850000 0.000000 -0.450000
v 11.650000 2.625000 1.850000
v 12.150000 2.625000 2.350000
v 8.850000 0.000000 -0.450000
v 9.350000 2.625000 2.350000
v 7.450000 2.625000 2.350000
v 9.350000 0.000000 -0.450000
v 5.150000 2.625000 2.350000
v 11.650000 0.000000 -0.450000
v -5.150000 2.625000 2.350000
v -7.450000 2.625000 2.350000
v -9.350000 2.625000 2.350000
v -11.650000 2.625000 1.850000
v -12.150000 2.625000 2.350000
v 19.150000 0.000000 -0.450000
v -8.850000 0.000000 1.850000
v -7.950000 0.000000 1.850000
v -4.650000 0.000000 0.950000
v -5.150000 0.000000 0.450000
v -18.650000 2.625000 3.250000
v -19.150000 2.625000 3.250000
v -4.650000 0.000000 1.850000
v -19.150000 2.625000 1.850000
v -18.650000 2.625000 2.350000
v 8.850000 2.625000 1.850000
v 7.950000 2.625000 1.850000
v 4.650000 2.625000 1.850000
v 5.150000 2.625000 0.450000
v 4.650000 2.625000 0.950000
v 4.650000 0.000000 0.950000
v 4.650000 0.000000 0.450000
v 5.150000 0.000000 0.450000
v 4.650000 0.000000 1.850000
v 5.150000 0.000000 1.850000
v -1.850000 2.625000 0.450000
v 7.950000 0.000000 1.850000
v -1.850000 2.625000 0.950000
v 8.850000 0.000000 1.850000
v -18.650000 0.000000 2.350000
v -19.150000 0.000000 1.850000
v -4.650000 2.625000 1.850000
v -19.150000 0.000000 3.250000
v -18.650000 0.000000 3.250000
v -3.750000 2.625000 0.450000
v -3.750000 2.625000 0.950000
v -5.150000 2.625000 0.450000
v -4.650000 2.625000 0.950000
v -7.950000 2.625000 1.850000
v -8.850000 2.625000 1.850000
v 19.150000 2.625000 -0.450000
v -12.150000 0.000000 2.350000
v 11.650000 2.625000 -0.450000
v -11.650000 0.000000 1.850000
v -12.150000 0.000000 3.250000
v -11.650000 0.000000 3.250000
v -9.350000 0.000000 2.350000
v -7.450000 0.000000 2.350000
v -5.150000 0.000000 2.350000
v -11.650000 2.625000 -0.450000
v -19.150000 2.625000 -0.450000
v 18.650000 2.625000 -0.950000
v 12.150000 2.625000 -0.950000
v 5.150000 0.000000 2.350000
v 9.350000 2.625000 -2.350000
v 7.450000 0.000000 2.350000
v 8.850000 2.625000 -2.350000
v 8.850000 2.625000 -1.850000
v 7.450000 2.625000 -2.350000
v 7.950000 2.625000 -2.350000
v 9.350000 0.000000 2.350000
v 7.950000 2.625000 -1.850000
v 12.150000 0.000000 2.350000
v 11.650000 0.000000 1.850000
v 5.150000 2.625000 -1.850000
v 11.650000 0.000000 3.250000
v 12.150000 0.000000 3.250000
v 13.550000 0.000000 2.350000
v 13.550000 0.000000 1.850000
v 18.650000 0.000000 2.350000
v -5.150000 2.625000 -1.850000
v 19.150000 0.000000 1.850000
v -7.450000 2.625000 -2.350000
v -8.850000 2.625000 -0.950000
v -9.350000 2.625000 -0.950000
v -7.950000 2.625000 -1.850000
v -9.350000 2.625000 -2.350000
v -8.850000 2.625000 -1.850000
v -9.350000 2.625000 -1.850000
v -12.150000 2.625000 -0.950000
v -18.650000 2.625000 -0.950000
v 19.150000 2.625000 -3.250000
v 18.650000 2.625000 -3.250000
v 4.650000 2.625000 -2.350000
v -4.650000 2.625000 -2.350000
v -18.650000 0.000000 6.050000
v 9.350000 2.625000 -4.650000
v 7.450000 2.625000 -4.650000
v 5.150000 2.625000 -5.150000
v 4.650000 2.625000 -4.650000
v 1.850000 2.625000 -5.150000
v 1.850000 2.625000 -4.650000
v -12.150000 0.000000 6.050000
v -1.850000 2.625000 -5.150000
v -1.850000 2.625000 -4.650000
v -8.850000 0.000000 5.150000
v -8.850000 0.000000 4.650000
v -9.350000 0.000000 4.650000
v -7.950000 0.000000 5.150000
v -7.950000 0.000000 4.650000
v -8.850000 0.000000 6.050000
v -7.450000 0.000000 4.650000
v -7.950000 0.000000 6.050000
v -5.150000 0.000000 5.150000
v -5.150000 0.000000 4.650000
v -5.150000 2.625000 -5.150000
v -4.650000 2.625000 -4.650000
v -7.450000 2.625000 -4.650000
v -9.350000 2.625000 -4.650000
v 5.150000 0.000000 5.150000
v 5.150000 0.000000 4.650000
v 7.950000 0.000000 5.150000
v 7.450000 0.000000 4.650000
v 8.850000 0.000000 5.150000
v 8.850000 0.000000 4.650000
v 7.450000 0.000000 6.050000
v 7.950000 0.000000 6.050000
v 9.350000 0.000000 4.650000
v 8.850000 0.000000 6.050000
v 12.150000 0.000000 6.050000
v 8.850000 2.625000 -5.150000
v 7.950000 2.625000 -5.150000
v -7.950000 2.625000 -5.150000
v -8.850000 2.625000 -5.150000
v 18.650000 0.000000 6.050000
v -18.650000 0.000000 6.550000
v 18.650000 2.625000 -7.450000
v 17.250000 2.625000 -7.950000
v 17.250000 2.625000 -7.450000
v -11.650000 0.000000 6.550000
v -9.350000 0.000000 6.550000
v -7.450000 0.000000 6.550000
v 7.450000 0.000000 6.550000
v 11.650000 2.625000 -7.950000
v 9.350000 0.000000 6.550000
v 12.150000 2.625000 -7.450000
v 11.650000 0.000000 6.550000
v 7.950000 2.625000 -6.550000
v 7.450000 2.625000 -6.550000
v 7.450000 2.625000 -7.450000
v 3.250000 2.625000 -7.950000
v 3.250000 2.625000 -7.450000
v 0.950000 2.625000 -7.450000
v -0.950000 2.625000 -7.450000
v -3.250000 2.625000 -7.950000
v -3.250000 2.625000 -7.450000
v 18.650000 0.000000 6.550000
v -5.150000 0.000000 7.950000
v -5.150000 0.000000 7.450000
v -7.450000 2.625000 -7.450000
v -11.650000 2.625000 -7.950000
v -0.950000 0.000000 7.950000
v -0.450000 0.000000 7.950000
v 0.450000 0.000000 7.950000
v -12.150000 2.625000 -7.450000
v -0.950000 0.000000 8.850000
v -0.450000 0.000000 8.850000
v 0.950000 0.000000 7.950000
v 0.450000 0.000000 8.850000
v 0.950000 0.000000 8.850000
v 5.150000 0.000000 7.950000
v 5.150000 0.000000 7.450000
v -17.250000 2.625000 -7.950000
v -17.250000 2.625000 -7.450000
v -17.750000 2.625000 -7.950000
v -17.750000 2.625000 -7.450000
v -18.650000 2.625000 -7.450000
v -16.350000 0.000000 9.350000
v -16.350000 0.000000 8.850000
v 18.650000 2.625000 -7.950000
v 9.350000 2.625000 -7.950000
v -13.550000 0.000000 9.350000
v 8.850000 2.625000 -7.950000
v -13.050000 0.000000 9.350000
v 7.450000 2.625000 -7.950000
v -12.150000 0.000000 9.350000
v -13.550000 0.000000 10.250000
v -13.050000 0.000000 10.250000
v -11.650000 0.000000 8.850000
v 0.450000 2.625000 -7.950000
v -0.450000 2.625000 -7.950000
v -9.350000 0.000000 9.350000
v -9.350000 0.000000 8.850000
v -7.450000 2.625000 -7.950000
v -6.050000 0.000000 9.350000
v -6.050000 0.000000 8.850000
v -0.950000 0.000000 9.350000
v -18.650000 2.625000 -7.950000
v 0.950000 0.000000 9.350000
v 6.050000 0.000000 9.350000
v 6.050000 0.000000 8.850000
v 16.350000 2.625000 -10.750000
v 16.350000 2.625000 -10.250000
v 9.350000 0.000000 9.350000
v 9.350000 0.000000 8.850000
v 12.150000 0.000000 9.350000
v 11.650000 0.000000 8.850000
v 13.050000 0.000000 9.350000
v 13.550000 0.000000 9.350000
v 11.650000 2.625000 -10.750000
v 11.650000 2.625000 -10.250000
v 9.350000 2.625000 -10.750000
v 16.350000 0.000000 9.350000
v 16.350000 0.000000 8.850000
v 8.850000 2.625000 -10.250000
v 7.450000 2.625000 -10.750000
v -18.650000 0.000000 11.650000
v 7.950000 2.625000 -10.250000
v 5.150000 2.625000 -10.750000
v 5.150000 2.625000 -10.250000
v -13.050000 0.000000 11.650000
v -12.150000 0.000000 11.650000
v -11.650000 0.000000 11.650000
v -3.250000 0.000000 10.250000
v -3.750000 0.000000 10.250000
v -3.750000 0.000000 11.650000
v -3.250000 0.000000 11.650000
v 3.750000 0.000000 10.250000
v 3.250000 0.000000 10.250000
v 3.250000 0.000000 11.650000
v 3.750000 0.000000 11.650000
v 0.950000 2.625000 -10.250000
v 11.650000 0.000000 10.750000
v 12.150000 0.000000 10.750000
v -0.450000 2.625000 -9.350000
v -0.950000 2.625000 -9.350000
v 0.450000 2.625000 -10.250000
v -0.450000 2.625000 -10.750000
v 12.150000 0.000000 11.650000
v -0.450000 2.625000 -10.250000
v -0.950000 2.625000 -10.250000
v 13.050000 0.000000 11.650000
v 13.550000 0.000000 11.650000
v 18.650000 0.000000 11.650000
v -18.650000 0.000000 12.150000
v -5.150000 2.625000 -10.750000
v -5.150000 2.625000 -10.250000
v -7.450000 2.625000 -10.750000
v -7.950000 2.625000 -10.750000
v -15.850000 0.000000 12.150000
v -15.850000 0.000000 11.650000
v -7.950000 2.625000 -10.250000
v -13.550000 0.000000 12.150000
v -9.350000 2.625000 -10.750000
v -8.850000 2.625000 -10.750000
v -8.850000 2.625000 -10.250000
v -11.650000 2.625000 -10.750000
v -11.650000 2.625000 -10.250000
v -11.650000 0.000000 12.150000
v -8.850000 0.000000 12.150000
v -9.350000 0.000000 11.650000
v -7.950000 0.000000 12.150000
v -7.450000 0.000000 11.650000
v -5.150000 0.000000 12.150000
v -5.150000 0.000000 11.650000
v -16.350000 2.625000 -10.750000
v -16.350000 2.625000 -10.250000
v -0.950000 0.000000 12.150000
v -0.450000 0.000000 12.150000
v 0.450000 0.000000 12.150000
v 0.950000 0.000000 12.150000
v 16.350000 2.625000 -13.050000
v 11.650000 2.625000 -13.050000
v 9.350000 2.625000 -13.050000
v 5.150000 0.000000 12.150000
v 5.150000 0.000000 11.650000
v 7.950000 0.000000 12.150000
v 7.450000 0.000000 11.650000
v 8.850000 0.000000 12.150000
v 3.250000 2.625000 -13.050000
v 0.950000 2.625000 -13.050000
v 9.350000 0.000000 11.650000
v -0.950000 2.625000 -13.050000
v -3.250000 2.625000 -13.050000
v 11.650000 0.000000 12.150000
v -6.050000 2.625000 -13.050000
v 13.550000 0.000000 12.150000
v -8.850000 2.625000 -13.050000
v -9.350000 2.625000 -13.050000
v 15.850000 0.000000 12.150000
v 15.850000 0.000000 11.650000
v -11.650000 2.625000 -13.050000
v 18.650000 0.000000 12.150000
v -16.350000 2.625000 -13.050000
v 15.850000 2.625000 -13.550000
v 16.350000 2.625000 -14.950000
v -9.350000 0.000000 14.450000
v -8.850000 0.000000 14.450000
v 15.850000 2.625000 -14.450000
v -7.950000 0.000000 14.450000
v -7.450000 0.000000 14.450000
v 12.150000 2.625000 -13.550000
v -0.950000 0.000000 14.450000
v -0.450000 0.000000 14.450000
v 11.650000 2.625000 -13.550000
v 11.650000 2.625000 -14.950000
v 0.450000 0.000000 14.450000
v 0.950000 0.000000 14.450000
v 12.150000 2.625000 -14.450000
v 11.650000 2.625000 -14.450000
v 8.850000 2.625000 -13.550000
v 9.350000 2.625000 -14.950000
v 7.450000 0.000000 14.450000
v 7.950000 0.000000 14.450000
v 8.850000 2.625000 -14.450000
v 8.850000 0.000000 14.450000
v 9.350000 0.000000 14.450000
v -16.350000 0.000000 14.950000
v -16.350000 0.000000 14.450000
v 5.150000 2.625000 -14.950000
v 5.150000 2.625000 -14.450000
v 3.750000 2.625000 -13.550000
v 3.250000 2.625000 -13.550000
v 3.250000 2.625000 -14.950000
v 3.750000 2.625000 -14.450000
v 0.950000 2.625000 -13.550000
v 0.450000 2.625000 -13.550000
v -0.450000 2.625000 -13.550000
v -0.950000 2.625000 -13.550000
v -3.750000 2.625000 -13.550000
v -3.250000 2.625000 -14.950000
v -3.750000 2.625000 -14.450000
v -6.050000 2.625000 -13.550000
v -3.250000 0.000000 14.950000
v -3.250000 0.000000 14.450000
v -0.950000 0.000000 14.950000
v -8.850000 2.625000 -13.550000
v -9.350000 2.625000 -14.950000
v 0.950000 0.000000 14.950000
v -8.850000 2.625000 -14.450000
v 3.250000 0.000000 14.950000
v 3.250000 0.000000 14.450000
v -12.150000 2.625000 -13.550000
v -11.650000 2.625000 -14.950000
v -12.150000 2.625000 -14.450000
v -13.050000 2.625000 -14.950000
v -13.050000 2.625000 -14.450000
v 8.850000 0.000000 14.950000
v -15.850000 2.625000 -13.550000
v -16.350000 2.625000 -14.950000
v -15.850000 2.625000 -14.950000
v -15.850000 2.625000 -14.450000
v 16.350000 0.000000 14.950000
v 16.350000 0.000000 14.450000
v -18.650000 0.000000 17.250000
v 19.150000 2.625000 -17.750000
v 18.650000 2.625000 -17.250000
v 18.650000 0.000000 17.250000
v -19.150000 0.000000 17.750000
v 0.950000 2.625000 -17.250000
v 0.450000 2.625000 -17.250000
v -0.450000 2.625000 -17.250000
v -0.950000 2.625000 -17.250000
v -19.150000 2.625000 -17.750000
v 19.150000 0.000000 17.750000
v -18.650000 2.625000 -17.250000
vn -0.0000 -1.0000 -0.0000
vn -1.0000 -0.0000 -0.0000
vn -0.0000 1.0000 -0.0000
vn -0.0000 -0.0000 1.0000
vn -0.0000 -0.0000 -1.0000
vn 1.0000 -0.0000 -0.0000
vt 0.230673 0.832918
vt 0.241895 0.832918
vt 0.241895 0.839152
vt 0.224439 0.839152
vt 0.224439 0.780549
vt 0.248130 0.780549
vt 0.248130 0.815461
vt 0.241895 0.815461
vt 0.241895 0.786783
vt 0.230673 0.786783
vt 0.149938 0.861596
vt 0.149938 0.902743
vt 0.117207 0.902743
vt 0.117207 0.844140
vt 0.149938 0.844140
vt 0.728491 0.915212
vt 0.734726 0.915212
vt 0.734726 0.956359
vt 0.728491 0.956359
vt 0.932357 0.216958
vt 0.926122 0.216958
vt 0.926122 0.175810
vt 0.949813 0.175810
vt 0.949813 0.182045
vt 0.943579 0.182045
vt 0.932357 0.182045
vt 0.612219 0.087282
vt 0.623441 0.087282
vt 0.623441 0.006234
vt 0.612219 0.006234
vt 0.612219 0.000000
vt 0.629676 0.000000
vt 0.629676 0.093516
vt 0.612219 0.093516
vt 0.982544 0.325748
vt 0.958853 0.325748
vt 0.958853 0.293017
vt 0.982544 0.293017
vt 0.379052 0.640898
vt 0.379052 0.756858
vt 0.346322 0.756858
vt 0.346322 0.640898
vt 0.932357 0.228180
vt 0.943579 0.228180
vt 0.949813 0.234414
vt 0.926122 0.234414
vt 0.906172 0.501247
vt 0.906172 0.553616
vt 0.882481 0.553616
vt 0.882481 0.477556
vt 0.899938 0.477556
vt 0.899938 0.483791
vt 0.888716 0.483791
vt 0.888716 0.547382
vt 0.899938 0.547382
vt 0.899938 0.501247
vt 0.932357 0.064838
vt 0.932357 0.076060
vt 0.926122 0.076060
vt 0.926122 0.058603
vt 0.932357 0.058603
vt 0.971633 0.512469
vt 0.971633 0.547381
vt 0.938903 0.547381
vt 0.938903 0.512469
vt 0.254364 0.582294
vt 0.283042 0.582294
vt 0.283042 0.571072
vt 0.254364 0.571072
vt 0.254364 0.564838
vt 0.289277 0.564838
vt 0.289277 0.588529
vt 0.254364 0.588529
vt 0.730673 0.529925
vt 0.730673 0.477556
vt 0.736908 0.477556
vt 0.736908 0.547382
vt 0.730673 0.547382
vt 0.730673 0.536160
vt 0.701995 0.536160
vt 0.701995 0.547382
vt 0.719451 0.547382
vt 0.719451 0.553616
vt 0.695761 0.553616
vt 0.695761 0.529925
vt 0.280860 0.845387
vt 0.248130 0.845387
vt 0.248130 0.769327
vt 0.280860 0.769327
vt 0.248130 0.693267
vt 0.248130 0.780549
vt 0.215399 0.780549
vt 0.215399 0.704489
vt 0.215399 0.693267
vt 0.973504 0.032731
vt 0.949813 0.032731
vt 0.949813 0.000000
vt 0.973504 0.000000
vt 0.958853 0.327930
vt 0.926122 0.327930
vt 0.926122 0.316708
vt 0.926122 0.293017
vt 0.958853 0.293017
vt 0.958853 0.299252
vt 0.867830 0.955112
vt 0.835100 0.955112
vt 0.835100 0.937656
vt 0.835100 0.913965
vt 0.867830 0.913965
vt 0.867830 0.920199
vt 0.882481 0.987843
vt 0.858790 0.987843
vt 0.858790 0.955112
vt 0.882481 0.955112
vt 0.006234 0.612219
vt 0.006234 0.728180
vt 0.034913 0.728180
vt 0.034913 0.693267
vt 0.041147 0.693267
vt 0.041147 0.734414
vt 0.000000 0.734414
vt 0.000000 0.605985
vt 0.041147 0.605985
vt 0.041147 0.647132
vt 0.034913 0.647132
vt 0.034913 0.612219
vt 0.787095 0.553616
vt 0.775873 0.553616
vt 0.775873 0.547382
vt 0.787095 0.547382
vt 0.787095 0.536160
vt 0.793329 0.536160
vt 0.793329 0.605985
vt 0.787095 0.605985
vt 0.469140 0.845387
vt 0.475374 0.845387
vt 0.475374 0.886534
vt 0.469140 0.886534
vt 0.701995 0.675810
vt 0.713217 0.675810
vt 0.713217 0.682045
vt 0.695761 0.682045
vt 0.695761 0.658354
vt 0.730673 0.658354
vt 0.730673 0.664589
vt 0.701995 0.664588
vt 0.810474 0.000000
vt 0.827930 0.000000
vt 0.827930 0.034913
vt 0.821696 0.034913
vt 0.821696 0.006234
vt 0.810474 0.006234
vt 0.152120 0.809227
vt 0.117207 0.809227
vt 0.117207 0.791771
vt 0.123441 0.791771
vt 0.123441 0.802992
vt 0.152120 0.802992
vt 0.152120 0.791771
vt 0.140898 0.791771
vt 0.140898 0.785536
vt 0.158354 0.785536
vt 0.158354 0.844140
vt 0.152120 0.844140
vt 0.906172 0.477556
vt 0.149938 0.943890
vt 0.117207 0.943890
vt 0.117207 0.902743
vt 0.149938 0.902743
vt 0.976309 0.358479
vt 0.958853 0.358479
vt 0.982544 0.325748
vt 0.982544 0.358479
vt 0.182668 0.943890
vt 0.149938 0.943890
vt 0.149938 0.902743
vt 0.182668 0.902743
vt 0.823254 0.682045
vt 0.840711 0.682045
vt 0.840711 0.688279
vt 0.817020 0.688279
vt 0.817020 0.682045
vt 0.629676 0.384040
vt 0.629676 0.407731
vt 0.623441 0.407731
vt 0.623441 0.390274
vt 0.612219 0.390274
vt 0.612219 0.384040
vt 0.330424 0.477556
vt 0.336658 0.477556
vt 0.336658 0.529925
vt 0.336658 0.536160
vt 0.336658 0.547381
vt 0.336658 0.553616
vt 0.336658 0.640898
vt 0.330424 0.640898
vt 0.253741 0.977868
vt 0.230050 0.977868
vt 0.230050 0.945137
vt 0.253741 0.945137
vt 0.973504 0.065461
vt 0.949813 0.065461
vt 0.949813 0.032731
vt 0.973504 0.032731
vt 0.867207 0.610973
vt 0.873441 0.610973
vt 0.873441 0.622194
vt 0.867207 0.622194
vt 0.436409 0.921446
vt 0.436409 0.962593
vt 0.430175 0.962593
vt 0.430175 0.921446
vt 0.906172 0.710723
vt 0.906172 0.728179
vt 0.899937 0.728179
vt 0.899937 0.716958
vt 0.888716 0.716958
vt 0.888716 0.710723
vt 0.006234 0.536160
vt 0.006234 0.547382
vt 0.006234 0.553616
vt 0.000000 0.553616
vt 0.000000 0.529925
vt 0.006234 0.529925
vt 0.802369 0.815461
vt 0.802369 0.879052
vt 0.769638 0.879052
vt 0.769638 0.815461
vt 0.982544 0.391209
vt 0.958853 0.391209
vt 0.958853 0.358479
vt 0.982544 0.358479
vt 0.313591 0.769327
vt 0.313591 0.821696
vt 0.313591 0.845387
vt 0.280860 0.845387
vt 0.280860 0.821696
vt 0.280860 0.769327
vt 0.379052 0.837905
vt 0.379052 0.896509
vt 0.346322 0.896509
vt 0.346322 0.837905
vt 0.775873 0.664589
vt 0.775873 0.675810
vt 0.775873 0.682045
vt 0.769638 0.682045
vt 0.769638 0.658354
vt 0.775873 0.658354
vt 0.944514 0.688279
vt 0.944514 0.682045
vt 0.955736 0.682045
vt 0.955736 0.670823
vt 0.955736 0.664588
vt 0.961970 0.664588
vt 0.961970 0.688279
vt 0.215399 0.903990
vt 0.215399 0.945137
vt 0.182668 0.945137
vt 0.182668 0.903990
vt 0.971010 0.629676
vt 0.971010 0.664588
vt 0.938279 0.664588
vt 0.938279 0.629676
vt 0.933292 0.734414
vt 0.933292 0.763092
vt 0.933292 0.786783
vt 0.900561 0.786783
vt 0.900561 0.780549
vt 0.900561 0.734414
vt 0.810474 0.477556
vt 0.810474 0.471322
vt 0.821696 0.471322
vt 0.821696 0.390274
vt 0.775561 0.390274
vt 0.775561 0.460100
vt 0.769327 0.460100
vt 0.769327 0.384040
vt 0.827930 0.384040
vt 0.827930 0.477556
vt 0.882481 0.629676
vt 0.882481 0.623441
vt 0.888716 0.623441
vt 0.899938 0.623441
vt 0.899938 0.559850
vt 0.888716 0.559850
vt 0.888716 0.588529
vt 0.882481 0.588529
vt 0.906172 0.629676
vt 0.248130 0.839152
vt 0.058603 0.529925
vt 0.082294 0.529925
vt 0.082294 0.536160
vt 0.064838 0.536160
vt 0.058603 0.536160
vt 0.734726 0.734414
vt 0.734726 0.793017
vt 0.728491 0.793017
vt 0.728491 0.734414
vt 0.248130 0.903990
vt 0.248130 0.945137
vt 0.215399 0.945137
vt 0.437656 0.006234
vt 0.437656 0.471322
vt 0.501247 0.471322
vt 0.501247 0.436409
vt 0.507481 0.436409
vt 0.507481 0.471322
vt 0.571072 0.471322
vt 0.571072 0.384040
vt 0.577307 0.390274
vt 0.577307 0.471322
vt 0.623441 0.471322
vt 0.629676 0.477556
vt 0.431421 0.477556
vt 0.431421 0.000000
vt 0.577307 0.006234
vt 0.577307 0.087282
vt 0.571072 0.093516
vt 0.571072 0.006234
vt 0.507481 0.006234
vt 0.507481 0.041147
vt 0.501247 0.041147
vt 0.501247 0.006234
vt 0.182045 0.785536
vt 0.182045 0.844140
vt 0.158354 0.844140
vt 0.158354 0.837905
vt 0.164588 0.837905
vt 0.175810 0.837905
vt 0.175810 0.791771
vt 0.164588 0.791771
vt 0.164588 0.826683
vt 0.158354 0.826683
vt 0.158354 0.785536
vt 0.973504 0.098192
vt 0.949813 0.098192
vt 0.949813 0.065461
vt 0.973504 0.065461
vt 0.609102 0.629676
vt 0.615337 0.629676
vt 0.615337 0.758105
vt 0.609102 0.758105
vt 0.932357 0.293017
vt 0.932357 0.286783
vt 0.943578 0.286783
vt 0.943578 0.293017
vt 0.958853 0.327930
vt 0.958853 0.362843
vt 0.926122 0.362843
vt 0.926122 0.327930
vt 0.926122 0.465087
vt 0.893391 0.465087
vt 0.893391 -0.000000
vt 0.926122 -0.000000
vt 0.624065 0.547382
vt 0.624065 0.553616
vt 0.554239 0.553616
vt 0.554239 0.529925
vt 0.589152 0.529925
vt 0.589152 0.536160
vt 0.560474 0.536160
vt 0.560474 0.547382
vt 0.938279 0.664588
vt 0.944514 0.670823
vt 0.938279 0.688279
vt 0.989713 0.767145
vt 0.966022 0.767145
vt 0.966022 0.734414
vt 0.989713 0.734414
vt 0.478180 0.675810
vt 0.445449 0.675810
vt 0.445449 0.658354
vt 0.445449 0.477556
vt 0.478180 0.477556
vt 0.098192 0.832606
vt 0.098192 0.799875
vt 0.115648 0.799875
vt 0.115648 0.832606
vt 0.971633 0.582294
vt 0.938903 0.582294
vt 0.938903 0.547382
vt 0.971633 0.547382
vt 0.109414 0.865337
vt 0.115648 0.865337
vt 0.115648 0.923940
vt 0.109414 0.923940
vt 0.624065 0.623441
vt 0.624065 0.612219
vt 0.630299 0.612219
vt 0.630299 0.623441
vt 0.973504 0.130923
vt 0.949813 0.130923
vt 0.897132 0.653367
vt 0.890898 0.653367
vt 0.890898 0.629676
vt 0.914588 0.629676
vt 0.914588 0.705736
vt 0.908354 0.705736
vt 0.908354 0.699501
vt 0.908354 0.635910
vt 0.897132 0.635910
vt 0.971633 0.582294
vt 0.971633 0.617207
vt 0.938903 0.617207
vt 0.938903 0.582294
vt 0.769638 0.564838
vt 0.769638 0.571072
vt 0.736908 0.571072
vt 0.736908 0.477556
vt 0.769638 0.477556
vt 0.972257 0.799875
vt 0.966022 0.799875
vt 0.972257 0.767145
vt 0.983479 0.767145
vt 0.989713 0.799875
vt 0.609102 0.856297
vt 0.609102 0.823566
vt 0.626559 0.823566
vt 0.626559 0.856297
vt 0.445449 0.495012
vt 0.412718 0.675810
vt 0.412718 0.495012
vt 0.412718 0.477556
vt 0.445449 0.477556
vt 0.501870 0.495012
vt 0.548005 0.495012
vt 0.548005 0.483790
vt 0.519327 0.483790
vt 0.519327 0.477556
vt 0.554239 0.477556
vt 0.554239 0.501247
vt 0.519327 0.501247
vt 0.519327 0.553616
vt 0.513092 0.553616
vt 0.513092 0.501247
vt 0.501870 0.501247
vt 0.188903 0.793017
vt 0.188903 0.804239
vt 0.188903 0.810474
vt 0.182668 0.810474
vt 0.182668 0.786783
vt 0.200125 0.786783
vt 0.200125 0.793017
vt 0.149938 0.844140
vt 0.182668 0.844140
vt 0.888716 0.728179
vt 0.906172 0.734414
vt 0.882481 0.734414
vt 0.882481 0.710723
vt 0.736908 0.605985
vt 0.736908 0.734414
vt 0.730673 0.734414
vt 0.730673 0.682045
vt 0.730673 0.675810
vt 0.730673 0.605985
vt 0.117207 0.785536
vt 0.093516 0.553616
vt 0.058603 0.553616
vt 0.064838 0.547382
vt 0.093516 0.547382
vt 0.093516 0.536160
vt 0.093516 0.529925
vt 0.093516 0.477556
vt 0.099751 0.477556
vt 0.099751 0.495012
vt 0.117207 0.495012
vt 0.117207 0.501247
vt 0.099751 0.501247
vt 0.099751 0.582294
vt 0.117207 0.582294
vt 0.117207 0.588529
vt 0.099751 0.588529
vt 0.099751 0.605985
vt 0.093516 0.605985
vt 0.793329 0.605985
vt 0.793329 0.734414
vt 0.787095 0.734414
vt 0.787095 0.682045
vt 0.787095 0.675810
vt 0.787095 0.664589
vt 0.787095 0.658354
vt 0.787095 0.605985
vt 0.484414 0.571072
vt 0.548005 0.571072
vt 0.548005 0.577307
vt 0.519327 0.577307
vt 0.519327 0.629676
vt 0.513092 0.629676
vt 0.513092 0.577307
vt 0.478180 0.577307
vt 0.478180 0.553616
vt 0.513092 0.553616
vt 0.513092 0.559850
vt 0.484414 0.559850
vt 0.730673 0.867830
vt 0.730673 0.856608
vt 0.719451 0.856608
vt 0.719451 0.850374
vt 0.730673 0.850374
vt 0.730673 0.815461
vt 0.736908 0.815461
vt 0.736908 0.874065
vt 0.701995 0.874065
vt 0.701995 0.867830
vt 0.938279 0.629676
vt 0.938279 0.688279
vt 0.932045 0.688279
vt 0.932045 0.682045
vt 0.932045 0.635910
vt 0.920823 0.635910
vt 0.920823 0.682045
vt 0.920823 0.688279
vt 0.914588 0.688279
vt 0.958853 0.362843
vt 0.958853 0.397756
vt 0.926122 0.397756
vt 0.926122 0.362843
vt 0.817020 0.477556
vt 0.817020 0.599751
vt 0.810785 0.599751
vt 0.810785 0.483791
vt 0.799564 0.483791
vt 0.799564 0.599751
vt 0.799564 0.605985
vt 0.793329 0.477556
vt 0.209476 0.250623
vt 0.163342 0.250623
vt 0.163342 0.244389
vt 0.209476 0.244389
vt 0.209476 0.233167
vt 0.163342 0.233167
vt 0.163342 0.226933
vt 0.209476 0.226933
vt 0.209476 0.006234
vt 0.093516 0.006234
vt 0.093516 0.023691
vt 0.087282 0.023691
vt 0.087282 0.006234
vt 0.034913 0.006234
vt 0.034913 0.000000
vt 0.215711 0.000000
vt 0.215711 0.477556
vt -0.000000 0.477556
vt 0.000000 0.384040
vt 0.093516 0.384040
vt 0.093516 0.453865
vt 0.087282 0.453865
vt 0.087282 0.390274
vt 0.006234 0.390274
vt 0.006234 0.471322
vt 0.087282 0.471322
vt 0.087282 0.460100
vt 0.093516 0.460100
vt 0.093516 0.471322
vt 0.209476 0.471322
vt 0.221945 0.390274
vt 0.221945 0.471322
vt 0.233167 0.471322
vt 0.233167 0.477556
vt 0.215711 0.477556
vt 0.215711 0.384040
vt 0.309227 0.384040
vt 0.309227 0.471322
vt 0.302993 0.471322
vt 0.302993 0.390274
vt 0.554239 0.553616
vt 0.554239 0.577307
vt 0.548005 0.559850
vt 0.312968 0.588529
vt 0.312968 0.582294
vt 0.324190 0.582294
vt 0.324190 0.571072
vt 0.330424 0.571072
vt 0.330424 0.588529
vt 0.967269 0.163653
vt 0.956047 0.163653
vt 0.949813 0.163653
vt 0.949813 0.130923
vt 0.967269 0.130923
vt 0.973504 0.130923
vt 0.973504 0.163653
vt 0.629676 -0.000000
vt 0.775561 0.006234
vt 0.775561 0.087282
vt 0.821696 0.087282
vt 0.827930 0.093516
vt 0.769327 0.093516
vt 0.769327 0.006234
vt 0.705736 0.006234
vt 0.705736 0.041147
vt 0.699501 0.041147
vt 0.699501 0.006234
vt 0.635910 0.006234
vt 0.635910 0.471322
vt 0.699501 0.471322
vt 0.699501 0.436409
vt 0.705736 0.436409
vt 0.705736 0.471322
vt 0.769327 0.471322
vt 0.775561 0.471322
vt 0.629676 0.477556
vt 0.621571 0.629676
vt 0.621571 0.758105
vt 0.966022 0.874065
vt 0.966022 0.908977
vt 0.933292 0.908977
vt 0.933292 0.874065
vt 0.411783 0.837905
vt 0.411783 0.896509
vt 0.379052 0.837905
vt 0.032731 0.972568
vt 0.000000 0.972568
vt 0.000000 0.937656
vt 0.032731 0.937656
vt 0.032731 0.943890
vt 0.663030 0.879052
vt 0.663030 0.896509
vt 0.630299 0.896509
vt 0.630299 0.837905
vt 0.663030 0.837905
vt 0.411783 0.756858
vt 0.379052 0.756858
vt 0.379052 0.640898
vt 0.411783 0.640898
vt 0.973504 0.196384
vt 0.949813 0.196384
vt 0.949813 0.163653
vt 0.967269 0.163653
vt 0.973504 0.163653
vt 0.730673 0.553616
vt 0.973504 0.229115
vt 0.949813 0.229115
vt 0.949813 0.196384
vt 0.956047 0.196384
vt 0.973504 0.196384
vt 0.032731 0.821696
vt 0.032731 0.885287
vt 0.000000 0.885287
vt 0.000000 0.821696
vt 0.215399 0.880299
vt 0.215399 0.897756
vt 0.182668 0.845387
vt 0.215399 0.845387
vt 0.873441 0.604738
vt 0.855985 0.610973
vt 0.855985 0.622194
vt 0.873441 0.628429
vt 0.849751 0.628429
vt 0.849751 0.604738
vt 0.956047 0.268080
vt 0.956047 0.261845
vt 0.973504 0.261845
vt 0.973504 0.268080
vt 0.967269 0.268080
vt 0.115648 0.767145
vt 0.109414 0.767145
vt 0.098192 0.767145
vt 0.098192 0.734414
vt 0.115648 0.734414
vt 0.215711 0.087282
vt 0.221945 0.087282
vt 0.291771 0.087282
vt 0.291771 0.093516
vt 0.215711 0.093516
vt 0.377806 0.477556
vt 0.377806 0.529925
vt 0.377806 0.536160
vt 0.377806 0.547381
vt 0.371571 0.547381
vt 0.371571 0.477556
vt 0.371571 0.529925
vt 0.371571 0.553616
vt 0.365337 0.547381
vt 0.365337 0.536160
vt 0.949813 0.058603
vt 0.926122 0.058603
vt 0.926122 0.052369
vt 0.932357 0.052369
vt 0.943578 0.052369
vt 0.943578 0.006234
vt 0.932357 0.006234
vt 0.932357 0.034913
vt 0.926122 0.034913
vt 0.926122 0.000000
vt 0.949813 0.000000
vt 0.377806 0.553616
vt 0.377806 0.640898
vt 0.371571 0.640898
vt 0.406484 0.547381
vt 0.406484 0.536160
vt 0.412718 0.529925
vt 0.412718 0.553616
vt 0.933292 0.786783
vt 0.933292 0.839152
vt 0.900561 0.839152
vt 0.900561 0.793017
vt 0.900561 0.786783
vt 0.810786 0.693267
vt 0.817020 0.693267
vt 0.817020 0.716958
vt 0.810786 0.716958
vt 0.630299 0.529925
vt 0.630299 0.553616
vt 0.624065 0.536160
vt 0.589152 0.477556
vt 0.595387 0.477556
vt 0.595387 0.529925
vt 0.817020 0.605985
vt 0.989713 0.832606
vt 0.972257 0.832606
vt 0.966022 0.832606
vt 0.313591 0.896509
vt 0.313591 0.837905
vt 0.346322 0.837905
vt 0.431421 0.000000
vt 0.425187 0.471322
vt 0.425187 0.250623
vt 0.372818 0.250623
vt 0.372818 0.233167
vt 0.379052 0.233167
vt 0.379052 0.244389
vt 0.425187 0.244389
vt 0.425187 0.233167
vt 0.396509 0.233167
vt 0.396509 0.226933
vt 0.425187 0.226933
vt 0.425187 0.006234
vt 0.309227 0.006234
vt 0.309227 0.093516
vt 0.302993 0.087282
vt 0.302993 0.006234
vt 0.221945 0.006234
vt 0.215711 0.000000
vt 0.897132 0.699501
vt 0.890898 0.705736
vt 0.248130 0.477556
vt 0.248130 0.693267
vt 0.215399 0.693267
vt 0.215399 0.477556
vt 0.769638 0.529925
vt 0.787095 0.529925
vt 0.787095 0.477556
vt 0.793329 0.477556
vt 0.775873 0.536160
vt 0.769638 0.553616
vt 0.041147 0.605985
vt 0.082294 0.605985
vt 0.082294 0.647132
vt 0.076060 0.647132
vt 0.076060 0.612219
vt 0.047382 0.612219
vt 0.047382 0.728180
vt 0.076060 0.728180
vt 0.076060 0.693267
vt 0.082294 0.693267
vt 0.082294 0.734414
vt 0.041147 0.734414
vt 0.248130 0.845387
vt 0.248130 0.903990
vt 0.115025 0.734414
vt 0.082294 0.734414
vt 0.082294 0.664588
vt 0.082294 0.605985
vt 0.115025 0.605985
vt 0.958853 0.432668
vt 0.926122 0.432668
vt 0.926122 0.397756
vt 0.958853 0.397756
vt 0.994077 0.543017
vt 0.982855 0.543017
vt 0.982855 0.510287
vt 0.994077 0.510287
vt 0.109414 0.898067
vt 0.098192 0.898067
vt 0.098192 0.865337
vt 0.109414 0.865337
vt 0.469140 0.845386
vt 0.469140 0.897756
vt 0.436409 0.897756
vt 0.436409 0.845386
vt 0.109414 0.930798
vt 0.098192 0.930798
vt 0.949813 0.058603
vt 0.949813 0.117207
vt 0.926122 0.117207
vt 0.932357 0.110973
vt 0.943578 0.110973
vt 0.943578 0.064838
vt 0.445449 0.751870
vt 0.445449 0.769327
vt 0.412718 0.769327
vt 0.115648 0.956671
vt 0.109414 0.956671
vt 0.109414 0.923940
vt 0.109414 0.963529
vt 0.098192 0.963529
vt 0.693890 0.975374
vt 0.687656 0.975374
vt 0.687656 0.942643
vt 0.693890 0.942643
vt 0.615337 0.790835
vt 0.609102 0.790835
vt 0.609102 0.758105
vt 0.615337 0.758105
vt 0.626559 0.758105
vt 0.626559 0.790835
vt 0.510910 0.758105
vt 0.478180 0.758105
vt 0.478180 0.740648
vt 0.478180 0.716958
vt 0.478180 0.629676
vt 0.510910 0.629676
vt 0.510910 0.635910
vt 0.445449 0.793018
vt 0.445449 0.845387
vt 0.412718 0.845387
vt 0.412718 0.810474
vt 0.412718 0.775561
vt 0.412718 0.769327
vt 0.445449 0.769327
vt 0.958853 0.467581
vt 0.926122 0.467581
vt 0.628741 0.930486
vt 0.600062 0.930486
vt 0.600062 0.897756
vt 0.628741 0.897756
vt 0.478180 0.477556
vt 0.484414 0.483790
vt 0.484414 0.495012
vt 0.478180 0.501247
vt 0.599751 0.976621
vt 0.588529 0.976621
vt 0.588529 0.943890
vt 0.599751 0.943890
vt 0.627805 0.629676
vt 0.627805 0.688279
vt 0.621571 0.688279
vt 0.663030 0.477556
vt 0.663030 0.640898
vt 0.630299 0.640898
vt 0.630299 0.477556
vt 0.346322 0.756858
vt 0.313591 0.756858
vt 0.313591 0.640898
vt 0.346322 0.640898
vt 0.180798 0.976621
vt 0.174564 0.976621
vt 0.174564 0.943890
vt 0.180798 0.943890
vt 0.695760 0.855361
vt 0.695760 0.896509
vt 0.663030 0.896509
vt 0.663030 0.837905
vt 0.695760 0.837905
vt 0.994077 0.575748
vt 0.982855 0.575748
vt 0.280860 0.903990
vt 0.280860 0.945137
vt 0.248130 0.945137
vt 0.248130 0.903990
vt 0.093516 0.093516
vt 0.000000 0.093516
vt 0.000000 0.000000
vt 0.006234 0.006234
vt 0.006234 0.087282
vt 0.087282 0.087282
vt 0.995948 0.163653
vt 0.984726 0.163653
vt 0.984726 0.130923
vt 0.995948 0.130923
vt 0.312344 0.977868
vt 0.301122 0.977868
vt 0.301122 0.945137
vt 0.312344 0.945137
vt 0.982232 0.662406
vt 0.971010 0.662406
vt 0.971010 0.629676
vt 0.982232 0.629676
vt 0.949813 0.261845
vt 0.949813 0.229115
vt 0.956047 0.229115
vt 0.967269 0.229115
vt 0.973504 0.229115
vt 0.989713 0.865337
vt 0.966022 0.865337
vt 0.032731 0.821696
vt 0.065461 0.821696
vt 0.065461 0.850374
vt 0.065461 0.885287
vt 0.032731 0.885287
vt 0.478180 0.675810
vt 0.478180 0.769327
vt 0.445449 0.769327
vt 0.849751 0.688279
vt 0.849751 0.734414
vt 0.817020 0.734414
vt 0.817020 0.723192
vt 0.817020 0.688279
vt 0.728491 0.926434
vt 0.728491 0.961346
vt 0.695760 0.961346
vt 0.695760 0.926434
vt 0.995948 0.196384
vt 0.984726 0.196384
vt 0.695761 0.734414
vt 0.728491 0.815461
vt 0.695760 0.815461
vt 0.766833 0.976621
vt 0.760598 0.976621
vt 0.760598 0.943890
vt 0.766833 0.943890
vt 0.995948 0.229115
vt 0.984726 0.229115
vt 0.835100 0.815461
vt 0.835100 0.879052
vt 0.145885 0.976621
vt 0.117207 0.976621
vt 0.117207 0.943890
vt 0.134663 0.943890
vt 0.145885 0.943890
vt 0.065461 0.948878
vt 0.065461 0.972568
vt 0.032731 0.972568
vt 0.032731 0.937656
vt 0.065461 0.937656
vt 0.627805 0.688279
vt 0.627805 0.746883
vt 0.621571 0.746883
vt 0.621571 0.688279
vt 0.995948 0.261845
vt 0.984726 0.261845
vt 0.215399 0.693267
vt 0.182668 0.693267
vt 0.182668 0.512469
vt 0.182668 0.477556
vt 0.215399 0.477556
vt 0.215399 0.495012
vt 0.899938 0.987843
vt 0.893703 0.987843
vt 0.893703 0.955112
vt 0.899938 0.955112
vt 0.174564 0.976621
vt 0.174564 0.943890
vt 0.447631 0.943890
vt 0.465087 0.943890
vt 0.465087 0.976621
vt 0.453865 0.976621
vt 0.436409 0.976621
vt 0.436409 0.943890
vt 0.115648 0.989401
vt 0.109414 0.989401
vt 0.109414 0.956671
vt 0.115648 0.956671
vt 0.900561 0.913965
vt 0.900561 0.937656
vt 0.900561 0.955112
vt 0.867830 0.931421
vt 0.802369 0.815461
vt 0.769638 0.815461
vt 0.769638 0.734414
vt 0.802369 0.734414
vt 0.098192 0.832606
vt 0.115648 0.832606
vt 0.611284 0.995947
vt 0.600062 0.995947
vt 0.600062 0.963217
vt 0.611284 0.963217
vt 0.989713 0.898067
vt 0.983479 0.898067
vt 0.966022 0.898067
vt 0.972257 0.865337
vt 0.560474 0.623441
vt 0.630299 0.629676
vt 0.554239 0.629676
vt 0.554239 0.605985
vt 0.589152 0.605985
vt 0.589152 0.553616
vt 0.595387 0.553616
vt 0.595387 0.605985
vt 0.630299 0.605985
vt 0.560474 0.612219
vt 0.280860 0.640898
vt 0.248130 0.640898
vt 0.098192 0.799875
vt 0.098192 0.767145
vt 0.115648 0.767145
vt 0.115648 0.799875
vt 0.436409 0.995324
vt 0.430175 0.995324
vt 0.430175 0.962593
vt 0.436409 0.962593
vt 0.628741 0.995947
vt 0.622506 0.995947
vt 0.622506 0.963217
vt 0.628741 0.963217
vt 0.734726 0.874065
vt 0.734726 0.915212
vt 0.728491 0.915212
vt 0.728491 0.874065
vt 0.543641 0.629676
vt 0.543641 0.758105
vt 0.982855 0.510287
vt 0.971633 0.510287
vt 0.971633 0.477556
vt 0.982855 0.477556
vt 0.982855 0.543017
vt 0.971633 0.543017
vt 0.517456 0.976621
vt 0.493766 0.976621
vt 0.493766 0.943890
vt 0.517456 0.943890
vt 0.867830 0.798005
vt 0.835100 0.798005
vt 0.835100 0.734414
vt 0.867830 0.734414
vt 0.109414 0.996259
vt 0.098192 0.996259
vt 0.098192 0.963529
vt 0.109414 0.963529
vt 0.626559 0.889027
vt 0.609102 0.889027
vt 0.867830 0.861596
vt 0.867830 0.913965
vt 0.835100 0.913965
vt 0.835100 0.861596
vt 0.900561 0.861596
vt 0.900561 0.913965
vt 0.994077 0.608479
vt 0.982855 0.608479
vt 0.998441 0.721010
vt 0.987219 0.721010
vt 0.987219 0.688279
vt 0.998441 0.688279
vt 0.933292 0.926434
vt 0.933292 0.937656
vt 0.900561 0.937656
vt 0.900561 0.891521
vt 0.933292 0.891521
vt 0.966022 0.930798
vt 0.989713 0.930798
vt 0.728491 0.874065
vt 0.728491 0.926434
vt 0.695760 0.926434
vt 0.695760 0.874065
vt 0.995948 0.767145
vt 0.989713 0.767145
vt 0.989713 0.734414
vt 0.995948 0.734414
vt 0.799564 0.728180
vt 0.810786 0.728180
vt 0.817020 0.734414
vt 0.817020 0.605985
vt 0.810786 0.612219
vt 0.799564 0.612219
vt 0.835100 0.734414
vt 0.802369 0.734414
vt 0.295511 0.564838
vt 0.330424 0.564838
vt 0.295511 0.571072
vt 0.295511 0.582294
vt 0.295511 0.588529
vt 0.295511 0.640898
vt 0.289277 0.640898
vt 0.289277 0.477556
vt 0.295511 0.477556
vt 0.971633 0.575748
vt 0.223815 0.786783
vt 0.223815 0.845386
vt 0.217581 0.845386
vt 0.217581 0.810474
vt 0.217581 0.804239
vt 0.217581 0.793017
vt 0.995948 0.799875
vt 0.989713 0.799875
vt 0.989713 0.767145
vt 0.995948 0.767145
vt 0.938903 0.593516
vt 0.938903 0.628429
vt 0.906172 0.628429
vt 0.906172 0.582294
vt 0.995948 0.832606
vt 0.989713 0.832606
vt 0.989713 0.799875
vt 0.995948 0.799875
vt 0.971633 0.608479
vt 0.995948 0.865337
vt 0.989713 0.865337
vt 0.995948 0.832606
vt 0.280860 0.886534
vt 0.248130 0.845386
vt 0.280860 0.845386
vt 0.995948 0.898067
vt 0.989713 0.898067
vt 0.995948 0.865337
vt 0.098192 0.937656
vt 0.098192 0.972568
vt 0.065461 0.972568
vt 0.065461 0.937656
vt 0.867830 0.798005
vt 0.867830 0.844140
vt 0.867830 0.861596
vt 0.835100 0.861596
vt 0.835100 0.826683
vt 0.835100 0.798005
vt 0.982544 0.423940
vt 0.976309 0.423940
vt 0.958853 0.423940
vt 0.958853 0.391209
vt 0.701995 0.856608
vt 0.695761 0.874065
vt 0.695761 0.850374
vt 0.730673 0.994077
vt 0.719451 0.994077
vt 0.719451 0.961346
vt 0.730673 0.961346
vt 0.995948 0.930798
vt 0.989713 0.930798
vt 0.989713 0.898067
vt 0.995948 0.898067
vt 0.998130 0.976621
vt 0.991895 0.976621
vt 0.991895 0.943890
vt 0.998130 0.943890
vt 0.966022 0.769327
vt 0.933292 0.769327
vt 0.933292 0.751870
vt 0.933292 0.734414
vt 0.775873 0.999065
vt 0.769638 0.999065
vt 0.769638 0.966334
vt 0.775873 0.966334
vt 0.966022 0.798005
vt 0.966022 0.804239
vt 0.933292 0.804239
vt 0.617519 0.930486
vt 0.517456 0.976621
vt 0.517456 0.943890
vt 0.534913 0.943890
vt 0.541147 0.943890
vt 0.541147 0.976621
vt 0.609102 0.790835
vt 0.626559 0.790835
vt 0.149938 0.785536
vt 0.117207 0.785536
vt 0.117207 0.698254
vt 0.149938 0.698254
vt 0.313591 0.945137
vt 0.313591 0.903990
vt 0.782107 0.999065
vt 0.775873 0.999065
vt 0.775873 0.966334
vt 0.782107 0.966334
vt 0.788342 0.999065
vt 0.782107 0.999065
vt 0.782107 0.966334
vt 0.788342 0.966334
vt 0.947319 0.729426
vt 0.914588 0.729426
vt 0.914588 0.688279
vt 0.947319 0.688279
vt 0.984726 0.032731
vt 0.973504 0.000000
vt 0.984726 0.000000
vt 0.510910 0.839152
vt 0.510910 0.897756
vt 0.478180 0.897756
vt 0.478180 0.839152
vt 0.984726 0.065461
vt 0.933292 0.891521
vt 0.900561 0.891521
vt 0.900561 0.839152
vt 0.933292 0.839152
vt 0.541147 0.976621
vt 0.541147 0.943890
vt 0.547382 0.943890
vt 0.558604 0.943890
vt 0.564838 0.943890
vt 0.564838 0.976621
vt 0.911783 0.937656
vt 0.929239 0.937656
vt 0.929239 0.970386
vt 0.900561 0.970386
vt 0.982544 0.456671
vt 0.958853 0.456671
vt 0.965087 0.423940
vt 0.794576 0.999065
vt 0.788342 0.999065
vt 0.788342 0.966334
vt 0.794576 0.966334
vt 0.995948 0.032731
vt 0.995948 0.000000
vt 0.313591 0.769327
vt 0.280860 0.710723
vt 0.313591 0.640898
vt 0.802369 0.879052
vt 0.802369 0.931421
vt 0.769638 0.931421
vt 0.769638 0.879052
vt 0.800810 0.999065
vt 0.800810 0.966334
vt 0.995948 0.065461
vt 0.032731 0.937656
vt 0.000000 0.937656
vt 0.000000 0.885287
vt 0.032731 0.885287
vt 0.324813 0.942643
vt 0.342269 0.942643
vt 0.342269 0.975374
vt 0.313591 0.975374
vt 0.313591 0.942643
vt 0.370948 0.975374
vt 0.342269 0.975374
vt 0.342269 0.942643
vt 0.370948 0.942643
vt 0.313591 0.845386
vt 0.313591 0.869077
vt 0.280860 0.862843
vt 0.280860 0.851621
vt 0.280860 0.845386
vt 0.984726 0.098192
vt 0.973504 0.098192
vt 0.973504 0.065461
vt 0.984726 0.065461
vt 0.182668 0.785536
vt 0.149938 0.785536
vt 0.149938 0.698254
vt 0.182668 0.698254
vt 0.564838 0.976621
vt 0.564838 0.943890
vt 0.588529 0.943890
vt 0.588529 0.976621
vt 0.399626 0.942643
vt 0.399626 0.975374
vt 0.370948 0.975374
vt 0.370948 0.942643
vt 0.973504 0.098192
vt 0.984726 0.098192
vt 0.695761 0.547382
vt 0.695761 0.640898
vt 0.663030 0.477556
vt 0.695761 0.477556
vt 0.807045 0.999065
vt 0.800810 0.966334
vt 0.807045 0.966334
vt 0.769638 0.664588
vt 0.736908 0.664588
vt 0.543641 0.897756
vt 0.510910 0.897756
vt 0.510910 0.839152
vt 0.543641 0.839152
vt 0.882481 0.541147
vt 0.849751 0.541147
vt 0.849751 0.477556
vt 0.882481 0.477556
vt 0.346322 0.896509
vt 0.346322 0.942643
vt 0.313591 0.896509
vt 0.813279 0.999065
vt 0.813279 0.966334
vt 0.966022 0.908978
vt 0.966022 0.943890
vt 0.933292 0.943890
vt 0.933292 0.908978
vt 0.346322 0.931421
vt 0.379052 0.896509
vt 0.379052 0.925187
vt 0.379052 0.942643
vt 0.993766 0.325748
vt 0.993766 0.293017
vt 0.817020 0.664588
vt 0.851933 0.664588
vt 0.851933 0.629676
vt 0.858167 0.629676
vt 0.858167 0.688279
vt 0.851933 0.682045
vt 0.851933 0.670823
vt 0.823254 0.670823
vt 0.428304 0.942643
vt 0.428304 0.975374
vt 0.802369 0.960100
vt 0.802369 0.966334
vt 0.769638 0.966334
vt 0.769638 0.931421
vt 0.802369 0.931421
vt 0.860661 0.477556
vt 0.827930 0.477556
vt 0.827930 -0.000000
vt 0.860661 -0.000000
vt 0.966022 0.821696
vt 0.966022 0.839152
vt 0.933292 0.804239
vt 0.966022 0.804239
vt 0.157107 0.226933
vt 0.157107 0.250623
vt 0.835100 0.879052
vt 0.835100 0.931421
vt 0.802369 0.931421
vt 0.802369 0.879052
vt 0.819514 0.999065
vt 0.813279 0.999065
vt 0.813279 0.966334
vt 0.819514 0.966334
vt 0.254364 0.477556
vt 0.254364 0.640898
vt 0.248130 0.640898
vt 0.248130 0.477556
vt 0.893391 -0.000000
vt 0.893391 0.477556
vt 0.860661 -0.000000
vt 0.476309 0.976621
vt 0.465087 0.976621
vt 0.465087 0.943890
vt 0.065461 0.885287
vt 0.065461 0.937656
vt 0.993766 0.358479
vt 0.576372 0.897756
vt 0.576372 0.839152
vt 0.825748 0.999065
vt 0.825748 0.966334
vt 0.849750 0.547382
vt 0.849750 0.553616
vt 0.817020 0.553616
vt 0.817020 0.518703
vt 0.817020 0.477556
vt 0.849750 0.477556
vt 0.313591 0.756858
vt 0.346322 0.756858
vt 0.346322 0.837905
vt 0.313591 0.837905
vt 0.313591 0.774314
vt 0.313591 0.768080
vt 0.032731 0.821696
vt 0.000000 0.821696
vt 0.000000 0.810474
vt 0.000000 0.804239
vt 0.000000 0.734414
vt 0.032731 0.734414
vt 0.831982 0.999065
vt 0.825748 0.999065
vt 0.825748 0.966334
vt 0.831982 0.966334
vt 0.933292 0.850374
vt 0.849751 0.594763
vt 0.849751 0.629676
vt 0.817020 0.629676
vt 0.817020 0.553616
vt 0.849751 0.553616
vt 0.411783 0.896509
vt 0.411783 0.942643
vt 0.379052 0.942643
vt 0.478180 0.769327
vt 0.478180 0.845387
vt 0.445449 0.845387
vt 0.769638 0.758105
vt 0.736908 0.758105
vt 0.098192 0.937656
vt 0.065461 0.937656
vt 0.065461 0.885287
vt 0.098192 0.885287
vt 0.999688 0.662406
vt 0.993454 0.662406
vt 0.993454 0.629676
vt 0.999688 0.629676
vt 0.215399 0.693267
vt 0.215399 0.763092
vt 0.215399 0.786783
vt 0.182668 0.786783
vt 0.182668 0.728180
vt 0.182668 0.693267
vt 0.041147 0.582294
vt 0.058603 0.582294
vt 0.058603 0.588529
vt 0.041147 0.588529
vt 0.041147 0.605985
vt 0.034913 0.605985
vt 0.034913 0.553616
vt 0.034913 0.547382
vt 0.034913 0.536160
vt 0.034913 0.529925
vt 0.034913 0.477556
vt 0.041147 0.477556
vt 0.041147 0.495012
vt 0.058603 0.495012
vt 0.058603 0.501247
vt 0.041147 0.501247
vt 0.995948 0.098192
vt 0.949813 0.285536
vt 0.956047 0.279302
vt 0.967269 0.279302
vt 0.973504 0.285536
vt 0.835100 0.987843
vt 0.835100 0.955112
vt 0.149938 0.477556
vt 0.117207 0.698254
vt 0.117207 0.477556
vt 0.609102 0.897756
vt 0.609102 0.839152
vt 0.943579 0.240648
vt 0.932357 0.240648
vt 0.949813 0.293017
vt 1.000000 0.325748
vt 0.993766 0.325748
vt 0.993766 0.293017
vt 1.000000 0.293017
vt 0.938903 0.477556
vt 0.938903 0.529925
vt 0.906172 0.529925
vt 0.430175 0.851621
vt 0.418953 0.851621
vt 0.418953 0.915212
vt 0.418953 0.921446
vt 0.412718 0.921446
vt 0.412718 0.845387
vt 0.436409 0.845387
vt 0.436409 0.897756
vt 0.430175 0.897756
vt 0.576372 0.629676
vt 0.576372 0.758105
vt 0.501870 0.897755
vt 0.534601 0.897755
vt 0.534601 0.932668
vt 0.534601 0.943890
vt 0.501870 0.943890
vt 0.501870 0.932668
vt 1.000000 0.358479
vt 0.993766 0.358479
vt 0.065461 0.734414
vt 0.065461 0.821696
vt 0.032731 0.821696
vt 0.032731 0.751870
vt 0.032731 0.734414
vt 0.736908 0.976621
vt 0.736908 0.943890
vt 0.346322 0.820449
vt 0.346322 0.756858
vt 0.379052 0.756858
vt 0.346322 0.837905
vt 0.430175 0.915212
vt 0.436409 0.921446
vt 0.098192 0.821696
vt 0.098192 0.885287
vt 0.065461 0.885287
vt 0.065461 0.821696
vt 0.372818 0.226933
vt 0.971633 0.512469
vt 0.938903 0.512469
vt 0.938903 0.488778
vt 0.938903 0.477556
vt 1.000000 0.391209
vt 0.993766 0.391209
vt 0.259975 0.945137
vt 0.277431 0.945137
vt 0.277431 0.977868
vt 0.663030 0.942643
vt 0.630299 0.942643
vt 0.630299 0.907730
vt 0.630299 0.896509
vt 0.769638 0.891521
vt 0.769638 0.897756
vt 0.736908 0.897756
vt 0.736908 0.891521
vt 0.736908 0.856608
vt 0.736908 0.839152
vt 0.769638 0.839152
vt 0.379052 0.826683
vt 1.000000 0.423940
vt 0.993766 0.423940
vt 0.294888 0.945137
vt 0.993766 0.391209
vt 0.973504 0.261845
vt 0.993766 0.423940
vt 0.956982 0.976621
vt 0.950748 0.976621
vt 0.933292 0.976621
vt 0.933292 0.943890
vt 0.956982 0.943890
vt 0.609102 0.758105
vt 0.835100 0.931421
vt 0.835100 0.966334
vt 0.695760 0.994077
vt 0.719451 0.961346
vt 0.719451 0.994077
vt 0.882481 0.734414
vt 0.849751 0.734414
vt 0.849751 0.693267
vt 0.882481 0.693267
vt 0.098192 0.734414
vt 0.098192 0.821696
vt 0.065461 0.821696
vt 0.065461 0.734414
vt 0.975997 0.721010
vt 0.975997 0.688279
vt 0.882481 0.987843
vt 0.882481 0.955112
vt 0.993766 0.456671
vt 0.994077 0.477556
vt 0.980673 0.976621
vt 0.963217 0.976621
vt 0.963217 0.943890
vt 0.980673 0.943890
vt 0.890898 0.693267
vt 0.858167 0.693267
vt 0.858167 0.629676
vt 0.890898 0.629676
vt 0.926122 0.117207
vt 0.949813 0.117207
vt 0.949813 0.134663
vt 0.943578 0.134663
vt 0.943578 0.123441
vt 0.932357 0.123441
vt 0.932357 0.169576
vt 0.943578 0.169576
vt 0.949813 0.169576
vt 0.949813 0.175810
vt 0.926122 0.175810
vt 0.695760 0.907730
vt 0.695760 0.942643
vt 0.991895 0.976621
vt 0.980673 0.976621
vt 0.980673 0.943890
vt 0.991895 0.943890
vt 0.658978 0.975374
vt 0.630299 0.975374
vt 0.630299 0.942643
vt 0.658978 0.942643
vt 0.206359 0.977868
vt 0.188903 0.977868
vt 0.182668 0.977868
vt 0.206359 0.945137
vt 0.993454 0.662406
vt 0.993454 0.629676
vt 0.230050 0.977868
vt 0.230050 0.945137
vt 0.182668 0.477556
vt 0.182668 0.698254
vt 0.149938 0.698254
vt 0.149938 0.477556
vt 0.687656 0.942643
vt 0.687656 0.975374
vt 0.975997 0.721010
vt 0.958541 0.721010
vt 0.947319 0.721010
vt 0.975997 0.688279
vt 0.600062 0.943890
vt 0.567332 0.943890
vt 0.567332 0.897756
vt 0.630299 0.756858
vt 0.663030 0.756858
vt 0.663030 0.837905
vt 0.630299 0.837905
vt 0.900561 0.798005
vt 0.867830 0.763092
vt 0.867830 0.734414
vt 0.663030 0.837905
vt 0.663030 0.756858
vt 0.695761 0.756858
vt 0.695761 0.837905
vt 0.469140 0.915212
vt 0.469140 0.943890
vt 0.436409 0.943890
vt 0.510910 0.769327
vt 0.510910 0.839152
vt 0.478180 0.839152
vt 0.478180 0.758105
vt 0.510910 0.758105
vt 0.736908 0.897755
vt 0.769638 0.897755
vt 0.769638 0.915212
vt 0.769638 0.943890
vt 0.736908 0.943890
vt 0.469140 0.943890
vt 0.469140 0.897755
vt 0.501870 0.897755
vt 0.501870 0.943890
vt 0.849750 0.558603
vt 0.849750 0.541147
vt 0.882481 0.541147
vt 0.882481 0.558603
vt 0.882481 0.604738
vt 0.849750 0.604738
vt 0.867830 0.815461
vt 0.900561 0.798005
vt 0.900561 0.826683
vt 0.900561 0.861596
vt 0.543641 0.758105
vt 0.543641 0.839152
vt 0.510910 0.758105
vt 0.543641 0.810474
vt 0.543641 0.758105
vt 0.576372 0.758105
vt 0.576372 0.827930
vt 0.576372 0.839152
vt 0.543641 0.839152
vt 0.576372 0.810474
vt 0.576372 0.758105
vt 0.609102 0.758105
vt 0.609102 0.775561
vt 0.609102 0.839152
vt 0.576372 0.839152
vt 0.567332 0.897755
vt 0.567332 0.932668
vt 0.567332 0.943890
vt 0.663030 0.675810
vt 0.663030 0.652120
vt 0.695761 0.756858
vt 0.769638 0.839152
vt 0.769638 0.758105
s 0
usemtl Neon_Azul
f 267/1/1 264/2/1 265/3/1 268/4/1 359/5/1 358/6/1 302/7/1 303/8/1 318/9/1 319/10/1
f 377/11/2 448/12/2 242/13/2 304/14/2 375/15/2
f 216/16/3 215/17/3 217/18/3 218/19/3
f 16/20/1 47/21/1 46/22/1 13/23/1 12/24/1 11/25/1 14/26/1
f 356/27/1 353/28/1 341/29/1 345/30/1 344/31/1 342/32/1 355/33/1 357/34/1
f 498/35/4 500/36/4 213/37/4 214/38/4
f 7/39/2 94/40/2 481/41/2 658/42/2
f 18/43/1 15/44/1 11/25/1 12/24/1 17/45/1 48/46/1 47/21/1 16/20/1
f 34/47/1 36/48/1 56/49/1 55/50/1 29/51/1 30/52/1 32/53/1 37/54/1 35/55/1 33/56/1
f 41/57/1 42/58/1 58/59/1 57/60/1 40/61/1
f 545/62/5 592/63/5 141/64/5 175/65/5
f 601/66/1 563/67/1 561/68/1 599/69/1 598/70/1 562/71/1 564/72/1 602/73/1
f 533/74/3 521/75/3 520/76/3 539/77/3 541/78/3 538/79/3 491/80/3 492/81/3 536/82/3 537/83/3 455/84/3 454/85/3
f 20/86/5 639/87/5 632/88/5 25/89/5
f 437/90/4 441/91/4 247/92/4 248/93/4 249/94/4
f 442/95/4 443/96/4 245/97/4 246/98/4
f 572/99/6 159/100/6 157/101/6 120/102/6 640/103/6 609/104/6
f 490/105/6 221/106/6 219/107/6 169/108/6 560/109/6 524/110/6
f 13/111/2 46/112/2 595/113/2 651/114/2
f 237/115/1 239/116/1 199/117/1 195/118/1 196/119/1 200/120/1 281/121/1 269/122/1 191/123/1 194/124/1 193/125/1 190/126/1
f 236/127/3 232/128/3 231/129/3 235/130/3 234/131/3 233/132/3 238/133/3 240/134/3
f 210/135/3 209/136/3 211/137/3 212/138/3
f 92/139/1 89/140/1 91/141/1 111/142/1 108/143/1 71/144/1 72/145/1 90/146/1
f 294/147/3 296/148/3 298/149/3 300/150/3 297/151/3 295/152/3
f 224/153/3 171/154/3 170/155/3 187/156/3 189/157/3 223/158/3 222/159/3 220/160/3 219/161/3 221/162/3 225/163/3 226/164/3
f 31/165/1 34/47/1 33/56/1 30/52/1 29/51/1
f 494/166/5 217/167/5 215/168/5 497/169/5
f 336/170/6 334/171/6 330/36/6 310/172/6 365/173/6
f 200/174/6 400/175/6 376/176/6 281/177/6
f 177/178/3 203/179/3 204/180/3 146/181/3 145/182/3
f 375/183/1 380/184/1 379/185/1 374/186/1 378/187/1 377/188/1
f 124/189/3 123/190/3 134/191/3 135/192/3 136/193/3 137/194/3 126/195/3 127/196/3
f 409/197/2 442/198/2 246/199/2 278/200/2
f 201/201/4 205/202/4 398/203/4 399/204/4
f 407/205/1 408/206/1 411/207/1 410/208/1
f 502/209/1 506/210/1 505/211/1 501/212/1
f 424/213/1 426/214/1 425/215/1 423/216/1 428/217/1 427/218/1
f 605/219/1 608/220/1 609/221/1 640/222/1 637/223/1 604/224/1
f 594/225/2 659/226/2 104/227/2 139/228/2
f 321/229/2 360/230/2 312/231/2 348/232/2
f 36/233/5 34/234/5 31/235/5 625/236/5 621/237/5 613/238/5
f 60/239/4 62/240/4 559/241/4 568/242/4
f 468/243/1 470/244/1 471/245/1 500/246/1 498/247/1 467/248/1
f 257/249/3 256/250/3 260/251/3 258/252/3 255/253/3 254/254/3 259/255/3
f 191/256/2 269/257/2 382/258/2 417/259/2
f 188/260/6 102/261/6 461/262/6 419/263/6
f 3/264/2 9/265/2 52/266/2 584/267/2 630/268/2 664/269/2
f 323/270/3 322/271/3 326/272/3 316/273/3 280/274/3 287/275/3 248/276/3 247/277/3 315/278/3 325/279/3
f 590/280/3 589/281/3 638/282/3 641/283/3 633/284/3 631/285/3 634/286/3 587/287/3 585/49/3 632/48/3 639/288/3
f 302/7/1 266/289/1 265/3/1 264/2/1 303/8/1
f 120/290/3 157/291/3 158/292/3 132/293/3 121/294/3
f 83/295/1 86/296/1 85/297/1 82/298/1
f 501/299/4 505/300/4 210/301/4 212/256/4
f 656/302/1 659/303/1 594/304/1 591/305/1 592/306/1 545/307/1 458/308/1 448/309/1 377/188/1 378/187/1 431/310/1 436/311/1 381/312/1 379/185/1 380/184/1 383/313/1 666/314/1 660/315/1 344/31/1 345/30/1 397/316/1 404/317/1 356/27/1 357/34/1 441/318/1 437/319/1 518/320/1 552/321/1 551/322/1 546/323/1
f 313/324/3 384/325/3 388/326/3 390/327/3 389/328/3 387/329/3 350/330/3 351/331/3 385/332/3 386/333/3 314/334/3
f 358/335/4 359/336/4 313/337/4 314/338/4
f 262/339/3 261/340/3 270/341/3 271/342/3
f 606/343/3 603/344/3 610/345/3 611/346/3
f 479/347/4 483/348/4 224/349/4 226/350/4
f 656/351/5 105/352/5 104/353/5 659/354/5
f 587/287/3 634/286/3 638/282/3 589/281/3
f 79/355/1 80/356/1 205/357/1 201/358/1 114/359/1 115/360/1 144/361/1 147/362/1
f 243/363/3 255/253/3 258/252/3 253/364/3 256/250/3 257/249/3 244/365/3
f 20/366/2 49/367/2 590/368/2 639/369/2
f 383/370/6 296/371/6 294/372/6 84/373/6 666/374/6
f 529/375/6 181/376/6 178/377/6 532/378/6
f 518/379/5 192/380/5 172/381/5 552/382/5
f 559/383/3 558/384/3 567/385/3 568/386/3
f 557/387/3 553/388/3 550/389/3 556/390/3
f 184/391/4 188/392/4 419/336/4 420/335/4
f 22/393/1 50/394/1 49/395/1 20/396/1 25/397/1 24/398/1 23/399/1 19/400/1 21/401/1
f 546/402/4 551/403/4 173/404/4 174/405/4
f 299/406/4 301/407/4 361/408/4 362/409/4 293/410/4
f 40/411/2 57/412/2 574/367/2 606/413/2 611/414/2 607/366/2 39/415/2
f 525/416/6 186/417/6 182/418/6 528/419/6
f 344/420/2 660/371/2 103/421/2 323/422/2 325/423/2 342/424/2
f 449/425/3 519/426/3 516/427/3 484/428/3 482/429/3 513/430/3 517/431/3 486/432/3 452/433/3 453/434/3 451/435/3 450/436/3
f 540/437/1 543/438/1 544/439/1 588/440/1 586/441/1 534/442/1 535/443/1
f 268/177/6 384/176/6 313/444/6 359/445/6
f 428/217/1 430/446/1 425/215/1 426/214/1 429/447/1 446/448/1 444/449/1 427/218/1
f 70/450/1 76/451/1 75/452/1 74/453/1 91/141/1 89/140/1 73/454/1 72/145/1 71/144/1 69/455/1
f 169/456/3 219/161/3 220/160/3 187/156/3 170/155/3
f 162/457/3 122/458/3 121/294/3 132/293/3 133/459/3 161/460/3 160/461/3 158/292/3 157/291/3 159/462/3 156/463/3 155/464/3 178/465/3 181/466/3 180/467/3 179/468/3 182/469/3 186/470/3 185/471/3 183/472/3 163/473/3 164/474/3
f 460/475/1 473/476/1 472/477/1 469/478/1 471/245/1 470/244/1 465/479/1 464/480/1 468/243/1 467/248/1 463/481/1 459/482/1
f 140/483/1 66/484/1 67/485/1 88/486/1 107/487/1 106/488/1 102/489/1 188/490/1 184/491/1 100/492/1 101/493/1 138/494/1
f 386/333/3 385/332/3 389/328/3 390/327/3
f 487/495/1 485/496/1 489/497/1 488/498/1 483/499/1 479/500/1 480/501/1 490/502/1 524/503/1 523/504/1
f 307/505/3 366/506/3 368/507/3 369/508/3 327/509/3 328/510/3 373/511/3 371/512/3 370/513/3 308/396/3
f 562/514/2 598/515/2 137/516/2 167/517/2
f 373/511/3 369/508/3 368/507/3 371/512/3
f 321/518/1 333/519/1 332/520/1 320/521/1 324/522/1 335/523/1 336/524/1 365/133/1 360/525/1
f 664/526/3 630/527/3 629/528/3 663/529/3 662/530/3 628/531/3 627/532/3 661/533/3 658/534/3 481/535/3 439/536/3 440/537/3 438/538/3 394/539/3 393/540/3 657/541/3 665/542/3 362/543/3 361/544/3 462/545/3 474/546/3 475/547/3 466/548/3 391/549/3 392/550/3 478/551/3 477/552/3 476/553/3 499/554/3 667/555/3
f 289/556/1 292/557/1 290/558/1 291/559/1 317/560/1 311/561/1 117/562/1 94/563/1 125/564/1 116/565/1
f 65/566/1 68/567/1 67/485/1 66/484/1 64/568/1 101/493/1 100/492/1
f 150/569/3 149/570/3 154/571/3 152/572/3 151/573/3 153/574/3
f 411/575/5 408/576/5 409/577/5 278/578/5 276/579/5 274/580/5 413/581/5
f 84/582/3 294/147/3 295/152/3 250/583/3 252/584/3 305/585/3 300/150/3 298/149/3 304/586/3 242/587/3 241/588/3 175/589/3 141/590/3 142/591/3 139/592/3 104/593/3 105/594/3 174/595/3 173/596/3 172/597/3 192/598/3 249/599/3 248/276/3 287/275/3 288/600/3 322/271/3 323/270/3 103/601/3
f 416/602/1 422/603/1 421/341/1 415/340/1
f 78/604/2 93/605/2 486/606/2 517/607/2
f 82/608/4 85/609/4 504/240/4 512/610/4
f 510/611/6 202/612/6 143/613/6 588/614/6 544/615/6
f 47/616/4 48/617/4 593/618/4 595/619/4 46/620/4
f 1/621/6 667/622/6 499/623/6 87/624/6
f 586/625/4 588/626/4 143/627/4 145/628/4 146/629/4
f 537/83/3 536/82/3 541/78/3 539/77/3 547/450/3 548/455/3 542/630/3
f 554/631/4 560/632/4 169/633/4 170/634/4 171/635/4
f 458/636/2 545/637/2 175/638/2 241/639/2
f 309/640/6 285/641/6 286/256/6 366/259/6 307/642/6 372/643/6
f 409/644/1 408/206/1 407/205/1 412/645/1 414/646/1 410/208/1 411/207/1 413/647/1 443/648/1 442/649/1
f 273/650/3 272/651/3 274/652/3 276/653/3 277/654/3
f 500/655/6 471/656/6 469/657/6 230/658/6 213/659/6
f 299/660/1 263/661/1 98/662/1 99/663/1 301/664/1
f 643/665/1 614/666/1 615/667/1 617/668/1 649/669/1 642/670/1
f 135/192/3 134/191/3 165/671/3 167/672/3 137/194/3 136/193/3 168/673/3 166/674/3
f 283/675/1 286/676/1 285/677/1 284/678/1 282/679/1 338/680/1 340/681/1 306/682/1 309/683/1 372/684/1 367/685/1
f 618/686/1 655/687/1 654/688/1 649/669/1 617/668/1 580/689/1 578/690/1 615/667/1 614/666/1 579/691/1 583/692/1
f 54/693/6 6/694/6 661/695/6 627/696/6 582/697/6
f 339/698/3 337/699/3 346/700/3 347/701/3
f 78/702/1 81/703/1 80/356/1 79/355/1 77/704/1 115/360/1 114/359/1 112/705/1 113/706/1 93/707/1
f 335/523/1 332/520/1 333/519/1 334/708/1 336/524/1
f 51/709/6 24/710/6 25/711/6 632/412/6 585/415/6
f 480/241/5 225/712/5 221/713/5 490/714/5
f 2/715/1 8/314/1 291/559/1 290/558/1 125/564/1 94/563/1 7/716/1 6/717/1 54/718/1 53/719/1 27/720/1 28/721/1 5/722/1 4/723/1 10/724/1 9/725/1 3/726/1 1/727/1 87/728/1 97/729/1 99/663/1 98/662/1 96/730/1 95/731/1 251/732/1 263/661/1 299/660/1 293/733/1
f 26/734/1 23/399/1 24/398/1 51/735/1 50/394/1 22/393/1
f 2/736/2 293/737/2 362/738/2 665/739/2
f 213/740/3 230/741/3 228/742/3 227/743/3 233/132/3 234/131/3 229/744/3 231/129/3 232/128/3 214/745/3
f 376/746/3 400/747/3 402/748/3 403/749/3 401/750/3 395/751/3 396/752/3 418/753/3 406/754/3 405/755/3 417/756/3 382/757/3
f 283/758/2 367/759/2 308/256/2 370/643/2
f 460/760/5 238/761/5 233/762/5 227/763/5 473/764/5
f 583/765/6 148/766/6 128/767/6 618/768/6
f 464/769/4 465/770/4 234/771/4 235/772/4
f 468/773/6 464/774/6 235/775/6 231/776/6
f 469/777/4 472/778/4 228/779/4 230/780/4
f 465/781/2 470/782/2 229/774/2 234/773/2
f 39/783/1 44/784/1 59/785/1 58/59/1 42/58/1 45/786/1 43/787/1 38/788/1 41/57/1 40/61/1
f 301/371/6 99/789/6 97/790/6 462/791/6 361/421/6
f 193/792/6 194/793/6 405/794/6 406/385/6
f 264/795/4 267/796/4 387/782/4 389/781/4
f 196/797/2 195/798/2 403/799/2 402/800/2
f 467/801/2 498/802/2 214/803/2 232/804/2 236/805/2 463/806/2
f 321/807/5 348/808/5 346/809/5 337/810/5 330/811/5 334/812/5 333/813/5
f 50/814/4 51/815/4 585/816/4 587/817/4 589/818/4 590/819/4 49/820/4
f 564/821/6 165/822/6 134/766/6 602/765/6
f 563/823/2 601/824/2 135/825/2 166/826/2
f 398/827/3 482/429/3 484/428/3 432/828/3 433/829/3 449/425/3 450/436/3 399/830/3
f 485/831/4 487/832/4 222/833/4 223/834/4
f 504/602/3 503/835/3 511/836/3 512/837/3
f 619/838/4 635/839/4 124/840/4 127/841/4
f 306/682/1 284/678/1 285/677/1 309/683/1
f 237/842/5 396/843/5 395/844/5 239/845/5
f 460/846/2 459/847/2 240/848/2 238/849/2
f 58/850/4 59/851/4 573/852/4 574/853/4 57/854/4
f 470/855/5 468/856/5 231/770/5 229/769/5
f 493/857/4 496/858/4 216/859/4 218/860/4
f 440/537/3 439/536/3 445/861/3 354/862/3 352/863/3 393/540/3 394/539/3 363/864/3 364/865/3 447/866/3
f 14/867/6 11/868/6 653/869/6 650/870/6
f 282/871/4 284/872/4 369/873/4 373/874/4
f 507/875/4 509/876/4 206/877/4 208/878/4
f 283/879/5 370/880/5 371/881/5 368/882/5 366/883/5 286/652/5
f 48/884/6 17/885/6 645/711/6 593/709/6
f 435/886/6 138/887/6 101/888/6 64/889/6 557/890/6
f 117/891/2 311/892/2 354/893/2 445/371/2
f 11/894/4 15/895/4 646/896/4 648/897/4 653/898/4
f 510/899/4 514/900/4 198/901/4 202/902/4
f 15/903/2 18/904/2 644/868/2 646/867/2
f 364/905/6 289/298/6 116/906/6 447/907/6
f 61/908/2 60/909/2 568/910/2 567/911/2
f 21/912/6 19/913/6 641/904/6 638/903/6
f 633/226/4 641/225/4 19/914/4 23/915/4
f 487/916/2 523/917/2 187/918/2 220/919/2 222/920/2
f 488/921/2 554/922/2 171/923/2 224/924/2 483/925/2
f 61/926/1 63/927/1 62/928/1 60/929/1
f 23/930/2 26/931/2 631/913/2 633/912/2
f 8/932/6 657/933/6 393/934/6 352/935/6 317/936/6 291/937/6
f 62/938/6 63/939/6 558/940/6 559/941/6
f 509/942/2 543/916/2 176/920/2 206/943/2
f 203/944/6 177/945/6 540/946/6 535/947/6 507/948/6 208/949/6
f 472/950/6 473/951/6 227/952/6 228/953/6
f 508/954/2 534/955/2 586/956/2 146/105/2 204/957/2 207/109/2
f 289/958/5 364/959/5 363/960/5 292/961/5
f 526/384/2 527/775/2 183/962/2 185/963/2
f 32/964/6 30/965/6 626/966/6 623/967/6
f 31/968/2 29/969/2 55/970/2 581/885/2 624/971/2 625/884/2
f 435/972/3 557/387/3 556/390/3 555/973/3 420/974/3 419/975/3 461/976/3 457/977/3 456/978/3 495/979/3 549/980/3 550/389/3 553/388/3 434/981/3
f 422/982/5 416/89/5 270/88/5 261/983/5
f 566/984/5 163/985/5 183/986/5 527/987/5
f 480/988/2 479/989/2 226/990/2 225/991/2
f 70/992/2 69/993/2 548/994/2 547/995/2
f 494/996/1 497/997/1 496/998/1 493/999/1
f 269/1000/4 281/1001/4 376/807/4 382/812/4
f 523/1002/5 522/1003/5 189/1004/5 187/1005/5
f 561/1006/4 563/1007/4 166/1003/4 168/1002/4
f 564/1008/5 562/1009/5 167/1010/5 165/1011/5
f 35/993/2 37/964/2 612/967/2 616/994/2
f 32/1012/5 623/1013/5 612/1014/5 37/1015/5
f 41/1016/6 38/1017/6 610/1018/6 603/1019/6
f 530/1020/2 531/1021/2 179/416/2 180/419/2
f 459/1022/4 463/1023/4 236/1024/4 240/1025/4
f 565/1026/4 569/1027/4 162/1023/4 164/1022/4
f 570/1028/4 571/1029/4 160/856/4 161/855/4
f 43/1030/2 45/1031/2 596/1032/2 600/1033/2
f 42/1034/5 41/1035/5 603/1036/5 596/1037/5 45/1038/5
f 44/1039/6 597/970/6 573/968/6 59/1040/6
f 572/1041/4 576/1042/4 156/1043/4 159/1044/4
f 494/1045/2 493/1046/2 218/1047/2 217/1048/2
f 343/1049/3 349/1050/3 347/701/3 346/700/3 348/1051/3 312/476/3 310/475/3 330/1052/3 337/699/3 339/698/3 331/1053/3 329/1054/3
f 531/1055/5 528/914/5 182/225/5 179/1056/5
f 128/1057/3 148/1058/3 151/573/3 152/572/3 129/1059/3 130/1060/3 149/570/3 150/569/3 131/1061/3 118/1062/3 119/1063/3 110/1064/3 109/1065/3
f 578/856/4 580/1066/4 152/1007/4 154/770/4
f 508/1067/1 515/1068/1 514/1069/1 510/1070/1 544/439/1 543/438/1 509/1071/1 507/1072/1 535/443/1 534/442/1
f 496/1073/6 497/1074/6 215/1075/6 216/1076/6
f 16/1077/5 14/1078/5 650/1079/5 644/1080/5 18/380/5
f 576/1081/6 577/1082/6 155/1083/6 156/1084/6
f 543/1029/5 540/1085/5 177/1066/5 176/856/5
f 75/1086/6 76/1087/6 520/1082/6 521/1088/6
f 357/1089/6 355/857/6 315/860/6 247/1090/6 441/1091/6
f 502/1092/2 501/1093/2 212/1087/2 211/1094/2
f 591/1095/4 594/1096/4 139/1097/4 142/1098/4
f 26/1099/5 22/1100/5 21/1101/5 638/1102/5 634/1103/5 631/1104/5
f 52/1105/4 53/1106/4 54/1107/4 582/1108/4 584/229/4
f 522/1109/1 523/504/1 524/503/1 560/1110/1 554/1111/1 488/498/1 489/497/1
f 28/1112/5 27/1113/5 629/1114/5 628/1115/5
f 505/1116/6 506/1117/6 209/1118/6 210/1119/6
f 83/1120/2 82/1121/2 512/1122/2 511/1123/2
f 579/368/2 614/1124/2 131/1125/2 150/1126/2 153/1127/2
f 592/1128/2 591/1129/2 142/1130/2 141/1131/2
f 569/1124/2 604/1132/2 637/1133/2 122/1134/2 162/1125/2
f 571/995/2 608/966/2 132/824/2 158/1135/2 160/823/2
f 579/1136/5 153/1137/5 151/1138/5 148/1139/5 583/1140/5
f 577/418/5 532/417/5 178/1141/5 155/1142/5
f 620/1143/5 126/1144/5 137/1145/5 598/1146/5
f 196/1147/5 402/858/5 400/857/5 200/1148/5
f 85/1149/6 86/1150/6 503/1151/6 504/1152/6
f 514/1153/6 515/1154/6 197/1155/6 198/1156/6
f 502/1157/5 211/1158/5 209/1159/5 506/1160/5
f 601/1161/5 599/204/5 136/1162/5 135/1163/5
f 63/1164/5 61/1165/5 567/1166/5 558/1167/5
f 64/1168/4 66/201/4 553/204/4 557/1161/4
f 602/1169/5 134/1170/5 123/1171/5 636/1172/5
f 65/1173/5 555/1174/5 556/1175/5 550/1176/5 549/1177/5 68/1178/5
f 149/1179/6 130/1180/6 615/1181/6 578/1182/6 154/1036/6
f 637/1183/4 640/1184/4 120/1107/4 121/1185/4 122/1105/4
f 525/1186/5 526/1187/5 185/1188/5 186/1189/5
f 608/1190/5 605/1161/5 133/1163/5 132/1191/5
f 70/1192/5 547/89/5 539/1193/5 520/982/5 76/1194/5
f 69/1195/4 71/1196/4 542/1197/4 548/1198/4
f 529/1199/5 530/1186/5 180/1189/5 181/1200/5
f 72/1201/4 73/1168/4 538/1161/4 541/1190/4
f 643/1202/5 118/1203/5 131/1204/5 614/1205/5
f 536/1206/6 492/1207/6 90/1208/6 72/1209/6 541/1210/6
f 580/1211/2 617/1212/2 129/1213/2 152/1214/2
f 266/1215/2 302/1216/2 358/1148/2 314/857/2 386/1217/2 390/1218/2 388/1219/2
f 617/1220/5 615/1221/5 130/1222/5 129/1223/5
f 618/1224/5 128/1225/5 109/1226/5 655/1227/5
f 78/1228/5 517/1229/5 513/1230/5 81/1231/5
f 133/1232/6 605/1233/6 570/1234/6 161/1235/6
f 77/869/4 79/580/4 516/1236/4 519/1237/4
f 649/1238/4 654/1239/4 110/839/4 119/1240/4 642/1241/4
f 620/1242/2 619/1199/2 127/1243/2 126/1244/2
f 311/407/4 317/1245/4 352/1246/4 354/408/4
f 83/1247/5 511/1248/5 503/1249/5 86/1250/5
f 546/1251/6 174/1252/6 105/1253/6 656/1254/6
f 267/1255/2 319/1256/2 350/1210/2 387/1257/2
f 551/1258/6 552/1242/6 172/1244/6 173/1259/6
f 195/1260/4 199/1261/4 401/1262/4 403/1263/4
f 385/1264/6 351/1255/6 318/1265/6 303/1266/6 264/1267/6 389/1256/6
f 324/1268/6 320/35/6 349/38/6 343/1269/6
f 143/1270/3 202/1271/3 198/1272/3 197/1273/3 207/1274/3 204/180/3 203/179/3 208/1275/3 206/1276/3 176/1277/3 177/178/3 145/182/3
f 136/1278/6 599/1279/6 561/1233/6 168/1232/6
f 67/1280/6 68/1281/6 549/1282/6 495/1283/6 88/1284/6
f 2/1285/5 665/1286/5 657/1287/5 8/1288/5
f 91/1289/6 74/1290/6 533/1172/6 454/1291/6 111/1292/6
f 582/1293/3 627/532/3 628/531/3 629/528/3 630/527/3 584/1294/3
f 74/1295/4 75/1296/4 521/1297/4 533/1298/4
f 566/1299/2 565/1300/2 164/1301/2 163/1302/2
f 620/1303/1 598/70/1 599/69/1 601/66/1 602/73/1 636/1304/1 635/1305/1 619/1306/1
f 660/1307/4 666/1308/4 84/1285/4 103/1309/4
f 189/1010/6 522/1009/6 489/1310/6 485/1311/6 223/1312/6
f 102/1313/4 106/1314/4 457/1202/4 461/1205/4
f 332/1315/2 335/232/2 329/35/2 331/1268/2
f 508/1316/5 207/1247/5 197/1250/5 515/1317/5
f 635/1318/6 636/1299/6 123/1302/6 124/1319/6
f 80/1320/6 81/1321/6 513/1322/6 482/1323/6 398/1324/6 205/1325/6
f 478/1326/4 95/1327/4 96/1328/4 466/1329/4 475/1330/4 477/1331/4
f 87/1332/5 499/1333/5 476/1334/5 474/1335/5 462/1336/5 97/1337/5
f 643/1338/2 642/1339/2 119/1340/2 118/1341/2
f 71/1290/2 108/604/2 455/607/2 537/1342/2 542/1172/2
f 100/1343/2 184/1344/2 420/1345/2 555/1346/2 65/1347/2
f 328/1265/6 338/1348/6 282/1349/6 373/1350/6
f 55/1351/4 56/1352/4 575/1353/4 581/893/4
f 355/1245/5 342/1354/5 325/1355/5 315/1246/5
f 88/1356/5 495/1357/5 456/1358/5 107/1359/5
f 106/1360/6 107/1361/6 456/1362/6 457/1363/6
f 383/1364/5 380/1365/5 375/1366/5 304/1367/5 298/1368/5 296/1369/5
f 531/1370/1 530/1371/1 529/1372/1 532/1373/1 577/1374/1 576/1375/1 572/1376/1 609/221/1 608/220/1 571/1377/1 570/1378/1 605/219/1 604/224/1 569/1379/1 565/1380/1 566/1381/1 527/1382/1 526/1383/1 525/1384/1 528/1385/1
f 92/1386/5 90/1237/5 492/1168/5 491/1201/5
f 319/868/5 318/581/5 351/580/5 350/869/5
f 246/1387/3 245/879/3 272/651/3 273/650/3 275/1388/3 279/1389/3 277/654/3 276/653/3 278/1390/3
f 108/112/4 111/1391/4 454/1392/4 455/113/4
f 6/1393/4 7/1146/4 658/1394/4 661/1395/4
f 39/1396/5 607/1316/5 597/1317/5 44/1397/5
f 600/1398/3 596/1399/3 603/344/3 606/343/3 574/102/3 573/46/3 597/45/3 607/1400/3 611/346/3 610/345/3
f 113/1401/2 112/1402/2 453/1403/2 452/1404/2
f 112/1405/4 114/1406/4 451/1407/4 453/165/4
f 113/380/5 452/1080/5 486/1407/5 93/1406/5
f 616/1408/3 612/1409/3 623/1410/3 624/1411/3 581/1412/3 575/1413/3 613/1414/3 621/1415/3 622/1416/3
f 360/1417/4 365/1418/4 310/1001/4 312/1000/4
f 288/1419/6 397/1420/6 345/1421/6 341/1422/6 326/1423/6 322/1424/6
f 654/1425/6 655/1426/6 109/1402/6 110/1401/6
f 340/904/5 338/635/5 328/581/5 327/868/5
f 94/1427/5 117/1428/5 445/1429/5 439/1430/5 481/1431/5
f 367/909/4 372/1432/4 307/1433/4 308/910/4
f 440/1434/4 447/1435/4 116/1436/4 125/610/4 438/1437/4
f 624/1411/3 623/1410/3 626/1438/3 622/1416/3 621/1415/3 625/1439/3
f 66/1440/2 140/1441/2 434/1442/2 553/1443/2
f 52/1444/1 9/725/1 10/724/1 27/720/1 53/719/1
f 114/1004/2 201/1445/2 399/1446/2 450/1447/2 451/1448/2
f 416/1449/2 415/1450/2 271/1426/2 270/1425/2
f 429/197/6 254/200/6 255/1451/6 243/1452/6 446/1453/6
f 381/852/2 436/1454/2 250/1455/2 295/1456/2 297/1457/2
f 12/1458/5 13/1459/5 651/1460/5 652/1461/5 647/1462/5 645/1463/5 17/1464/5
f 397/608/5 288/610/5 287/1465/5 280/622/5 404/621/5
f 407/913/4 410/631/4 277/635/4 279/904/4
f 421/1466/6 422/1467/6 261/1450/6 262/1449/6
f 413/1453/6 274/1452/6 272/1468/6 245/873/6 443/872/6
f 412/1469/6 407/229/6 279/232/6 275/1315/6
f 140/931/5 138/1470/5 435/631/5 434/913/5
f 410/1471/2 414/1105/2 273/229/2 277/1469/2
f 429/1472/5 426/1473/5 424/1474/5 259/1475/5 254/1476/5
f 415/339/4 421/1477/4 262/1418/4 271/1417/4
f 190/1478/4 193/1479/4 406/1281/4 418/1297/4
f 36/1480/6 613/901/6 575/1481/6 56/1482/6
f 191/1483/5 417/1484/5 405/1485/5 194/1486/5
f 448/1487/4 458/1488/4 241/1489/4 242/1490/4
f 147/1031/5 144/1491/5 433/1492/5 432/1032/5
f 423/939/4 425/1493/4 258/1494/4 260/940/4
f 428/1495/6 423/1183/6 260/1105/6 256/1471/6
f 425/772/2 430/1002/2 253/1005/2 258/1496/2
f 424/1497/2 427/1498/2 444/1472/2 244/1476/2 257/1499/2 259/1500/2
f 437/1501/6 249/1502/6 192/1503/6 518/1504/6
f 593/1505/3 645/1506/3 647/1507/3 648/1508/3 646/1509/3 644/1510/3 650/1511/3 653/1512/3 652/1513/3 651/1514/3 595/1515/3
f 356/1516/2 404/1517/2 280/1454/2 316/852/2 353/851/2
f 414/1518/5 412/1519/5 275/1520/5 273/1521/5
f 648/1508/3 647/1507/3 652/1513/3 653/1512/3
f 199/1522/2 239/1523/2 395/1524/2 401/1525/2
f 268/1526/5 265/1527/5 266/1528/5 388/258/5 384/1529/5
f 430/1530/5 428/875/5 256/878/5 253/1531/5
f 444/1532/4 446/1526/4 243/1529/4 244/1533/4
f 1/1534/4 3/1535/4 664/1536/4 667/1537/4
f 4/870/4 5/869/4 662/1237/4 663/1386/4
f 190/1522/6 418/1525/6 396/1538/6 237/1539/6
f 73/1540/2 89/1541/2 92/1542/2 491/1160/2 538/1543/2
f 5/825/2 28/1544/2 628/1545/2 662/1546/2
f 392/1547/6 251/1548/6 95/1549/6 478/1550/6
f 79/269/2 147/1551/2 432/1012/2 484/1552/2 516/1553/2
f 316/1554/4 326/1555/4 341/1556/4 353/1557/4
f 284/778/2 306/1558/2 340/1559/2 327/1560/2 369/779/2
f 476/553/3 477/552/3 475/547/3 474/546/3
f 98/1561/2 263/1562/2 391/1563/2 466/1564/2 96/1565/2
f 629/1566/6 27/1567/6 10/1568/6 4/1569/6 663/1570/6
f 600/1571/4 610/1572/4 38/1573/4 43/1574/4
f 622/1575/4 626/1576/4 30/1577/4 33/1578/4 35/1579/4 616/1580/4
f 449/1581/6 433/1099/6 144/1582/6 115/1583/6 77/1584/6 519/1101/6
f 263/1585/5 251/1586/5 392/1164/5 391/1587/5
f 394/1588/2 438/1589/2 125/1590/2 290/1591/2 292/1592/2 363/1593/2
f 300/1594/4 305/1595/4 374/1596/4 379/1597/4 381/1598/4 297/1599/4
f 252/1420/6 431/1600/6 378/1601/6 374/1602/6 305/1422/6
f 335/839/5 324/1548/5 343/1547/5 329/840/5
f 339/1603/4 347/1604/4 349/839/4 320/1239/4 332/1605/4 331/1548/4
f 431/1606/5 252/1463/5 250/1355/5 436/1607/5
o Plane
v -19.009249 0.000000 18.000000
v 19.009249 0.000000 18.000000
v -19.009249 0.000000 -18.000000
v 19.009249 0.000000 -18.000000
vn -0.0000 1.0000 -0.0000
vt -24.500000 -24.500000
vt 25.500000 -24.500000
vt 25.500000 25.500000
vt -24.500000 25.500000
s 0
f 668/1608/7 669/1609/7 671/1610/7 670/1611/7
